<svg width="44" height="50" viewBox="0 0 44 50" fill="none" xmlns="http://www.w3.org/2000/svg">
<path d="M18.9814 45.1221L17.2483 33.4733L7.64767 41.9221L18.9814 45.1221Z" fill="#E7E7E7"/>
<path d="M38.4727 21.688C38.2746 17.9219 38.4374 16.4091 39.3651 15.1021" stroke="black"/>
<path d="M39.5166 13.6187L38.7341 14.9061L39.39 16.3578L40.8285 16.522L41.611 15.2346L40.955 13.7829L39.5166 13.6187Z" fill="url(#paint0_linear_361_345)"/>
<path fill-rule="evenodd" clip-rule="evenodd" d="M15.0591 0L11.4174 7.10392L12.1886 8.891C16.4705 12.1149 18.2478 15.8087 19.5344 19.405L23.0527 18.8468L26.6943 11.7428L22.6975 2.31946L15.0591 0ZM18.529 19.5646L18.4328 19.5798L18.6079 20.3989L15.3148 25.6953L2.16926 18.655L0.50046 10.8484L7.88538 7.81712L11.9182 9.94415C15.6791 12.8915 17.3183 16.2215 18.529 19.5646Z" fill="url(#paint1_linear_361_345)"/>
<path d="M19.7922 20.3517L10.8178 34.7647L18.6475 46.7498L35.4514 44.322L43.9414 26.1262L36.5961 17.9238L19.7922 20.3517Z" fill="url(#paint2_linear_361_345)"/>
<path fill-rule="evenodd" clip-rule="evenodd" d="M37.5438 39.8336L38.3672 38.0688C31.3223 34.0909 26.2815 26.903 23.9614 19.7493L21.8914 20.0483C24.3227 27.712 29.7477 35.5411 37.5438 39.8336ZM33.3824 44.6208L35.4494 44.3222L35.6808 43.8262C31.7999 41.1983 28.5344 38.6133 25.8195 35.3824C22.9136 31.9242 20.6034 27.6823 18.8983 21.7843L17.4537 24.1043C19.1567 29.2773 21.3885 33.2223 24.1714 36.534C26.7905 39.651 29.8728 42.1759 33.3824 44.6208ZM24.5103 45.9027L27.2421 45.508C24.4832 43.6045 21.7686 40.6101 19.5016 37.3229C17.3468 34.1985 15.6909 30.9481 14.8135 28.3446L13.4438 30.5444C14.4586 33.008 15.9588 35.7429 17.7409 38.3271C19.6662 41.1188 21.9932 43.8411 24.5103 45.9027Z" fill="black"/>
<path d="M33.1817 20.0325C33.1331 20.3043 32.8734 20.4853 32.6016 20.4368C32.3297 20.3883 32.1487 20.1285 32.1972 19.8567L33.1817 20.0325ZM32.1972 19.8567C32.8279 16.325 34.3486 14.1478 35.5659 13.0044L36.2506 13.7332C35.1905 14.729 33.7746 16.7121 33.1817 20.0325L32.1972 19.8567Z" fill="black"/>
<path d="M36.872 11.1112L35.5834 11.9691L35.6821 13.5141L37.0694 14.2012L38.3581 13.3432L38.2594 11.7982L36.872 11.1112Z" fill="url(#paint3_linear_361_345)"/>
<path d="M35.5907 29.2056C35.215 28.83 35.2545 28.2138 35.6789 27.8295C36.1033 27.4452 36.7518 27.4381 37.1274 27.8138L35.5907 29.2056ZM41.189 31.9894C39.8142 31.4811 37.8602 31.4753 35.5907 29.2056L37.1274 27.8138C39.0179 29.7043 40.1171 29.4537 42.0517 30.1691L41.189 31.9894Z" fill="black"/>
<ellipse cx="1.83536" cy="1.83538" rx="1.83536" ry="1.83538" transform="matrix(-1 0 0 1 36.9727 23.0034)" fill="black"/>
<defs>
<linearGradient id="paint0_linear_361_345" x1="39.5166" y1="13.6187" x2="40.953" y2="16.4591" gradientUnits="userSpaceOnUse">
<stop stop-color="#F2CB05"/>
<stop offset="1" stop-color="#F29F05"/>
</linearGradient>
<linearGradient id="paint1_linear_361_345" x1="13.5974" y1="0" x2="13.5974" y2="25.6954" gradientUnits="userSpaceOnUse">
<stop stop-color="#F2CB05"/>
<stop offset="1" stop-color="#F29F05"/>
</linearGradient>
<linearGradient id="paint2_linear_361_345" x1="27.3796" y1="17.9238" x2="27.3796" y2="46.7498" gradientUnits="userSpaceOnUse">
<stop stop-color="#F2CB05"/>
<stop offset="1" stop-color="#F29F05"/>
</linearGradient>
<linearGradient id="paint3_linear_361_345" x1="36.872" y1="11.1112" x2="37.0694" y2="14.2012" gradientUnits="userSpaceOnUse">
<stop stop-color="#F2CB05"/>
<stop offset="1" stop-color="#F29F05"/>
</linearGradient>
</defs>
</svg>
