<svg width="33" height="32" viewBox="0 0 33 32" fill="none" xmlns="http://www.w3.org/2000/svg">
<path fill-rule="evenodd" clip-rule="evenodd" d="M16.6 26C15.432 26 14.304 25.864 13.22 25.633L8.51198 28.463L8.57497 23.824C4.96597 21.654 2.59998 18.066 2.59998 14C2.59998 7.373 8.86798 2 16.6 2C24.332 2 30.6 7.373 30.6 14C30.6 20.628 24.332 26 16.6 26ZM16.6 0C7.76398 0 0.599976 6.269 0.599976 14C0.599976 18.419 2.94498 22.354 6.59998 24.919V32L13.609 27.747C14.579 27.907 15.577 28 16.6 28C25.436 28 32.6 21.732 32.6 14C32.6 6.269 25.436 0 16.6 0Z" fill="black"/>
</svg>
