<svg width="33" height="31" viewBox="0 0 33 31" fill="none" xmlns="http://www.w3.org/2000/svg">
<mask id="path-1-inside-1_84_394" fill="white">
<path d="M29.7635 18.612C29.8327 17.9692 29.3675 17.3919 28.7247 17.3228C28.0819 17.2536 27.5046 17.7186 27.4355 18.3616L29.7635 18.612ZM18.2982 28.0976H14.9018V30.439H18.2982V28.0976ZM5.76446 18.3616L5.47824 15.7006L3.15022 15.951L3.43642 18.612L5.76446 18.3616ZM12.565 14.1257L15.3584 9.11722L13.3134 7.97671L10.52 12.9851L12.565 14.1257ZM17.8416 9.1172L20.6349 14.1257L22.68 12.9851L19.8866 7.97671L17.8416 9.1172ZM20.6349 14.1257C20.8875 14.5784 21.1199 14.9982 21.3452 15.3191C21.5771 15.6492 21.8934 16.0139 22.3779 16.2273L23.3215 14.0844C23.4088 14.1226 23.394 14.1621 23.2614 13.9735C23.1224 13.7755 22.9574 13.4826 22.68 12.9851L20.6349 14.1257ZM24.3131 13.2118C23.9092 13.614 23.6696 13.8507 23.4811 14.0032C23.3014 14.1485 23.2975 14.1068 23.3912 14.0939L23.7118 16.4133C24.236 16.3409 24.6401 16.0773 24.9539 15.8235C25.2587 15.5768 25.5978 15.237 25.9655 14.8706L24.3131 13.2118ZM22.3779 16.2273C22.7967 16.4116 23.2586 16.4759 23.7118 16.4133L23.3912 14.0939C23.3673 14.0972 23.3432 14.0939 23.3215 14.0844L22.3779 16.2273ZM7.23443 14.8706C7.60217 15.237 7.94124 15.5768 8.24617 15.8235C8.55991 16.0773 8.96406 16.3409 9.48812 16.4133L9.80884 14.0939C9.90252 14.1068 9.89855 14.1485 9.71888 14.0032C9.53038 13.8507 9.29076 13.614 8.88687 13.2118L7.23443 14.8706ZM10.52 12.9851C10.2426 13.4826 10.0776 13.7755 9.93851 13.9735C9.80606 14.1621 9.79122 14.1226 9.87834 14.0844L10.822 16.2273C11.3065 16.0139 11.6229 15.6492 11.8548 15.3191C12.08 14.9983 12.3124 14.5784 12.565 14.1257L10.52 12.9851ZM9.48812 16.4133C9.94131 16.4759 10.4032 16.4116 10.822 16.2273L9.87834 14.0844C9.85673 14.0939 9.83262 14.0972 9.80884 14.0939L9.48812 16.4133ZM14.9018 28.0976C12.6573 28.0976 11.0853 28.0954 9.88555 27.9418C8.71845 27.7924 8.05911 27.5159 7.56549 27.074L6.00387 28.8187C6.98707 29.6988 8.17285 30.0831 9.58837 30.2644C10.9712 30.4412 12.7194 30.439 14.9018 30.439V28.0976ZM3.43642 18.612C3.6677 20.7621 3.85121 22.8681 4.16403 24.576C4.32181 25.4375 4.5208 26.2492 4.79639 26.9537C5.06966 27.6524 5.44665 28.32 6.00387 28.8187L7.56549 27.074C7.38429 26.9118 7.17801 26.6146 6.97695 26.1008C6.77824 25.5928 6.61189 24.9442 6.46718 24.1542C6.17498 22.5589 6.00479 20.596 5.76446 18.3616L3.43642 18.612ZM27.4355 18.3616C27.1951 20.596 27.025 22.5589 26.7327 24.1542C26.588 24.9442 26.4216 25.5928 26.2229 26.1008C26.022 26.6146 25.8157 26.9118 25.6344 27.074L27.196 28.8187C27.7533 28.32 28.1303 27.6524 28.4036 26.9537C28.6791 26.2492 28.8781 25.4375 29.036 24.576C29.3488 22.8681 29.5322 20.7621 29.7635 18.612L27.4355 18.3616ZM18.2982 30.439C20.4806 30.439 22.2287 30.4412 23.6116 30.2644C25.0271 30.0831 26.2129 29.6988 27.196 28.8187L25.6344 27.074C25.1409 27.5159 24.4815 27.7924 23.3144 27.9418C22.1146 28.0954 20.5427 28.0976 18.2982 28.0976V30.439ZM14.6488 4.29268C14.6488 3.21505 15.5223 2.34146 16.6 2.34146V0C14.2292 0 12.3073 1.9219 12.3073 4.29268H14.6488ZM16.6 2.34146C17.6777 2.34146 18.5512 3.21505 18.5512 4.29268H20.8927C20.8927 1.9219 18.9708 0 16.6 0V2.34146ZM30.2585 10.5366C30.2585 11.1832 29.7343 11.7073 29.0878 11.7073V14.0488C31.0275 14.0488 32.6 12.4763 32.6 10.5366H30.2585ZM27.9171 10.5366C27.9171 9.89001 28.4412 9.36585 29.0878 9.36585V7.02439C27.1481 7.02439 25.5756 8.59685 25.5756 10.5366H27.9171ZM29.0878 9.36585C29.7343 9.36585 30.2585 9.89001 30.2585 10.5366H32.6C32.6 8.59685 31.0275 7.02439 29.0878 7.02439V9.36585ZM4.11217 11.7073C3.4656 11.7073 2.94144 11.1832 2.94144 10.5366H0.599976C0.599976 12.4763 2.17244 14.0488 4.11217 14.0488V11.7073ZM2.94144 10.5366C2.94144 9.89001 3.4656 9.36585 4.11217 9.36585V7.02439C2.17244 7.02439 0.599976 8.59685 0.599976 10.5366H2.94144ZM4.11217 9.36585C4.75874 9.36585 5.2829 9.89001 5.2829 10.5366H7.62437C7.62437 8.59685 6.0519 7.02439 4.11217 7.02439V9.36585ZM29.0878 11.7073C29.0831 11.7073 29.0784 11.7073 29.0737 11.7072L29.0466 14.0485C29.0603 14.0486 29.074 14.0488 29.0878 14.0488V11.7073ZM29.0737 11.7072C28.7258 11.7032 28.4148 11.5485 28.2011 11.3012L26.4293 12.8318C27.0632 13.5657 28.0001 14.0364 29.0466 14.0485L29.0737 11.7072ZM28.2011 11.3012C28.0234 11.0954 27.9171 10.8299 27.9171 10.5366H25.5756C25.5756 11.413 25.8981 12.217 26.4293 12.8318L28.2011 11.3012ZM25.9655 14.8706C27.0231 13.8173 27.5677 13.2864 27.9302 13.0627L26.7003 11.0703C26.0448 11.4749 25.2587 12.2697 24.3131 13.2118L25.9655 14.8706ZM5.2829 10.5366C5.2829 10.8299 5.17657 11.0954 4.99879 11.3012L6.77062 12.8318C7.30187 12.217 7.62437 11.413 7.62437 10.5366H5.2829ZM8.88687 13.2118C7.94118 12.2697 7.15507 11.4749 6.49962 11.0703L5.26979 13.0627C5.6322 13.2864 6.17692 13.8173 7.23443 14.8706L8.88687 13.2118ZM4.99879 11.3012C4.78511 11.5485 4.47419 11.7032 4.12628 11.7072L4.15337 14.0485C5.1998 14.0364 6.13677 13.5657 6.77062 12.8318L4.99879 11.3012ZM4.12628 11.7072C4.12157 11.7073 4.11687 11.7073 4.11217 11.7073V14.0488C4.12592 14.0488 4.13966 14.0486 4.15337 14.0485L4.12628 11.7072ZM5.47824 15.7006C5.40108 14.9832 5.34046 14.418 5.30789 13.9582C5.27458 13.4881 5.27722 13.2048 5.30018 13.0334L2.97945 12.7224C2.92329 13.1417 2.93677 13.6225 2.97228 14.1237C3.00853 14.6354 3.07467 15.2487 3.15022 15.951L5.47824 15.7006ZM18.5512 4.29268C18.5512 5.04982 18.1202 5.70832 17.4847 6.0325L18.5489 8.11821C19.9375 7.40972 20.8927 5.96375 20.8927 4.29268H18.5512ZM17.4847 6.0325C17.2205 6.16734 16.9209 6.2439 16.6 6.2439V8.58537C17.2993 8.58537 17.9627 8.41725 18.5489 8.11821L17.4847 6.0325ZM19.8866 7.97671C19.5646 7.39934 19.2752 6.87994 19.0097 6.45495L17.0239 7.69577C17.2518 8.06044 17.5097 8.52211 17.8416 9.1172L19.8866 7.97671ZM16.6 6.2439C16.279 6.2439 15.9795 6.16734 15.7152 6.0325L14.6511 8.11821C15.2372 8.41725 15.9007 8.58537 16.6 8.58537V6.2439ZM15.7152 6.0325C15.0797 5.70832 14.6488 5.04982 14.6488 4.29268H12.3073C12.3073 5.96375 13.2624 7.40972 14.6511 8.11821L15.7152 6.0325ZM15.3584 9.11722C15.6902 8.52211 15.9481 8.06044 16.176 7.69577L14.1903 6.45495C13.9248 6.87994 13.6354 7.39934 13.3134 7.97671L15.3584 9.11722Z"/>
</mask>
<path d="M29.7635 18.612C29.8327 17.9692 29.3675 17.3919 28.7247 17.3228C28.0819 17.2536 27.5046 17.7186 27.4355 18.3616L29.7635 18.612ZM18.2982 28.0976H14.9018V30.439H18.2982V28.0976ZM5.76446 18.3616L5.47824 15.7006L3.15022 15.951L3.43642 18.612L5.76446 18.3616ZM12.565 14.1257L15.3584 9.11722L13.3134 7.97671L10.52 12.9851L12.565 14.1257ZM17.8416 9.1172L20.6349 14.1257L22.68 12.9851L19.8866 7.97671L17.8416 9.1172ZM20.6349 14.1257C20.8875 14.5784 21.1199 14.9982 21.3452 15.3191C21.5771 15.6492 21.8934 16.0139 22.3779 16.2273L23.3215 14.0844C23.4088 14.1226 23.394 14.1621 23.2614 13.9735C23.1224 13.7755 22.9574 13.4826 22.68 12.9851L20.6349 14.1257ZM24.3131 13.2118C23.9092 13.614 23.6696 13.8507 23.4811 14.0032C23.3014 14.1485 23.2975 14.1068 23.3912 14.0939L23.7118 16.4133C24.236 16.3409 24.6401 16.0773 24.9539 15.8235C25.2587 15.5768 25.5978 15.237 25.9655 14.8706L24.3131 13.2118ZM22.3779 16.2273C22.7967 16.4116 23.2586 16.4759 23.7118 16.4133L23.3912 14.0939C23.3673 14.0972 23.3432 14.0939 23.3215 14.0844L22.3779 16.2273ZM7.23443 14.8706C7.60217 15.237 7.94124 15.5768 8.24617 15.8235C8.55991 16.0773 8.96406 16.3409 9.48812 16.4133L9.80884 14.0939C9.90252 14.1068 9.89855 14.1485 9.71888 14.0032C9.53038 13.8507 9.29076 13.614 8.88687 13.2118L7.23443 14.8706ZM10.52 12.9851C10.2426 13.4826 10.0776 13.7755 9.93851 13.9735C9.80606 14.1621 9.79122 14.1226 9.87834 14.0844L10.822 16.2273C11.3065 16.0139 11.6229 15.6492 11.8548 15.3191C12.08 14.9983 12.3124 14.5784 12.565 14.1257L10.52 12.9851ZM9.48812 16.4133C9.94131 16.4759 10.4032 16.4116 10.822 16.2273L9.87834 14.0844C9.85673 14.0939 9.83262 14.0972 9.80884 14.0939L9.48812 16.4133ZM14.9018 28.0976C12.6573 28.0976 11.0853 28.0954 9.88555 27.9418C8.71845 27.7924 8.05911 27.5159 7.56549 27.074L6.00387 28.8187C6.98707 29.6988 8.17285 30.0831 9.58837 30.2644C10.9712 30.4412 12.7194 30.439 14.9018 30.439V28.0976ZM3.43642 18.612C3.6677 20.7621 3.85121 22.8681 4.16403 24.576C4.32181 25.4375 4.5208 26.2492 4.79639 26.9537C5.06966 27.6524 5.44665 28.32 6.00387 28.8187L7.56549 27.074C7.38429 26.9118 7.17801 26.6146 6.97695 26.1008C6.77824 25.5928 6.61189 24.9442 6.46718 24.1542C6.17498 22.5589 6.00479 20.596 5.76446 18.3616L3.43642 18.612ZM27.4355 18.3616C27.1951 20.596 27.025 22.5589 26.7327 24.1542C26.588 24.9442 26.4216 25.5928 26.2229 26.1008C26.022 26.6146 25.8157 26.9118 25.6344 27.074L27.196 28.8187C27.7533 28.32 28.1303 27.6524 28.4036 26.9537C28.6791 26.2492 28.8781 25.4375 29.036 24.576C29.3488 22.8681 29.5322 20.7621 29.7635 18.612L27.4355 18.3616ZM18.2982 30.439C20.4806 30.439 22.2287 30.4412 23.6116 30.2644C25.0271 30.0831 26.2129 29.6988 27.196 28.8187L25.6344 27.074C25.1409 27.5159 24.4815 27.7924 23.3144 27.9418C22.1146 28.0954 20.5427 28.0976 18.2982 28.0976V30.439ZM14.6488 4.29268C14.6488 3.21505 15.5223 2.34146 16.6 2.34146V0C14.2292 0 12.3073 1.9219 12.3073 4.29268H14.6488ZM16.6 2.34146C17.6777 2.34146 18.5512 3.21505 18.5512 4.29268H20.8927C20.8927 1.9219 18.9708 0 16.6 0V2.34146ZM30.2585 10.5366C30.2585 11.1832 29.7343 11.7073 29.0878 11.7073V14.0488C31.0275 14.0488 32.6 12.4763 32.6 10.5366H30.2585ZM27.9171 10.5366C27.9171 9.89001 28.4412 9.36585 29.0878 9.36585V7.02439C27.1481 7.02439 25.5756 8.59685 25.5756 10.5366H27.9171ZM29.0878 9.36585C29.7343 9.36585 30.2585 9.89001 30.2585 10.5366H32.6C32.6 8.59685 31.0275 7.02439 29.0878 7.02439V9.36585ZM4.11217 11.7073C3.4656 11.7073 2.94144 11.1832 2.94144 10.5366H0.599976C0.599976 12.4763 2.17244 14.0488 4.11217 14.0488V11.7073ZM2.94144 10.5366C2.94144 9.89001 3.4656 9.36585 4.11217 9.36585V7.02439C2.17244 7.02439 0.599976 8.59685 0.599976 10.5366H2.94144ZM4.11217 9.36585C4.75874 9.36585 5.2829 9.89001 5.2829 10.5366H7.62437C7.62437 8.59685 6.0519 7.02439 4.11217 7.02439V9.36585ZM29.0878 11.7073C29.0831 11.7073 29.0784 11.7073 29.0737 11.7072L29.0466 14.0485C29.0603 14.0486 29.074 14.0488 29.0878 14.0488V11.7073ZM29.0737 11.7072C28.7258 11.7032 28.4148 11.5485 28.2011 11.3012L26.4293 12.8318C27.0632 13.5657 28.0001 14.0364 29.0466 14.0485L29.0737 11.7072ZM28.2011 11.3012C28.0234 11.0954 27.9171 10.8299 27.9171 10.5366H25.5756C25.5756 11.413 25.8981 12.217 26.4293 12.8318L28.2011 11.3012ZM25.9655 14.8706C27.0231 13.8173 27.5677 13.2864 27.9302 13.0627L26.7003 11.0703C26.0448 11.4749 25.2587 12.2697 24.3131 13.2118L25.9655 14.8706ZM5.2829 10.5366C5.2829 10.8299 5.17657 11.0954 4.99879 11.3012L6.77062 12.8318C7.30187 12.217 7.62437 11.413 7.62437 10.5366H5.2829ZM8.88687 13.2118C7.94118 12.2697 7.15507 11.4749 6.49962 11.0703L5.26979 13.0627C5.6322 13.2864 6.17692 13.8173 7.23443 14.8706L8.88687 13.2118ZM4.99879 11.3012C4.78511 11.5485 4.47419 11.7032 4.12628 11.7072L4.15337 14.0485C5.1998 14.0364 6.13677 13.5657 6.77062 12.8318L4.99879 11.3012ZM4.12628 11.7072C4.12157 11.7073 4.11687 11.7073 4.11217 11.7073V14.0488C4.12592 14.0488 4.13966 14.0486 4.15337 14.0485L4.12628 11.7072ZM5.47824 15.7006C5.40108 14.9832 5.34046 14.418 5.30789 13.9582C5.27458 13.4881 5.27722 13.2048 5.30018 13.0334L2.97945 12.7224C2.92329 13.1417 2.93677 13.6225 2.97228 14.1237C3.00853 14.6354 3.07467 15.2487 3.15022 15.951L5.47824 15.7006ZM18.5512 4.29268C18.5512 5.04982 18.1202 5.70832 17.4847 6.0325L18.5489 8.11821C19.9375 7.40972 20.8927 5.96375 20.8927 4.29268H18.5512ZM17.4847 6.0325C17.2205 6.16734 16.9209 6.2439 16.6 6.2439V8.58537C17.2993 8.58537 17.9627 8.41725 18.5489 8.11821L17.4847 6.0325ZM19.8866 7.97671C19.5646 7.39934 19.2752 6.87994 19.0097 6.45495L17.0239 7.69577C17.2518 8.06044 17.5097 8.52211 17.8416 9.1172L19.8866 7.97671ZM16.6 6.2439C16.279 6.2439 15.9795 6.16734 15.7152 6.0325L14.6511 8.11821C15.2372 8.41725 15.9007 8.58537 16.6 8.58537V6.2439ZM15.7152 6.0325C15.0797 5.70832 14.6488 5.04982 14.6488 4.29268H12.3073C12.3073 5.96375 13.2624 7.40972 14.6511 8.11821L15.7152 6.0325ZM15.3584 9.11722C15.6902 8.52211 15.9481 8.06044 16.176 7.69577L14.1903 6.45495C13.9248 6.87994 13.6354 7.39934 13.3134 7.97671L15.3584 9.11722Z" fill="#1E1E1E"/>
<path d="M12.565 14.1257L12.3214 14.5624L12.8085 13.6891L12.565 14.1257ZM13.3134 7.97671L13.5569 7.54003L13.0698 8.41338L13.3134 7.97671ZM17.8416 9.1172L17.598 8.68052L18.0851 9.5539L17.8416 9.1172ZM22.68 12.9851L22.9235 13.4218L22.4364 12.5485L22.68 12.9851ZM22.3779 16.2273L21.9203 16.0258L22.8355 16.4288L22.3779 16.2273ZM24.3131 13.2118L24.6673 12.8589L23.9588 13.5647L24.3131 13.2118ZM23.3912 14.0939L23.8864 14.0254L22.8959 14.1624L23.3912 14.0939ZM7.23443 14.8706L6.88018 14.5178L7.58867 15.2235L7.23443 14.8706ZM9.80884 14.0939L10.3041 14.1624L9.31355 14.0254L9.80884 14.0939ZM10.822 16.2273L10.3644 16.4288L11.2796 16.0258L10.822 16.2273ZM7.56549 27.074L7.93806 27.4075L7.19293 26.7406L7.56549 27.074ZM25.6344 27.074L26.007 26.7406L25.2619 27.4075L25.6344 27.074ZM28.2011 11.3012L28.528 11.6795L27.8743 10.9228L28.2011 11.3012ZM17.4847 6.0325L17.9301 5.80524L17.0394 6.25973L17.4847 6.0325ZM15.7152 6.0325L16.1606 6.25973L15.2698 5.80524L15.7152 6.0325ZM27.382 18.8587L29.7101 19.1091L29.817 18.1148L27.489 17.8645L27.382 18.8587ZM4.54698 17.9897L3.38296 18.1148L3.48989 19.1091L4.65391 18.9839L4.54698 17.9897ZM4.36771 16.3229L5.53171 16.1977L5.42478 15.2035L4.26077 15.3287L4.36771 16.3229ZM11.299 13.9922L12.3214 14.5624L12.8085 13.6891L11.786 13.1188L11.299 13.9922ZM14.5793 8.1103L13.5569 7.54004L13.0698 8.41338L14.0922 8.98363L14.5793 8.1103ZM18.6207 8.11027L17.5981 8.68051L18.0851 9.5539L19.1077 8.98366L18.6207 8.11027ZM21.9009 13.9922L22.9235 13.4218L22.4364 12.5485L21.4138 13.1188L21.9009 13.9922ZM22.3922 14.9543L21.9203 16.0258L22.8355 16.4288L23.3074 15.3574L22.3922 14.9543ZM25.4935 13.6882L24.6673 12.8589L23.9589 13.5647L24.7851 14.394L25.4935 13.6882ZM24.0468 15.1852L23.8864 14.0254L22.8959 14.1624L23.0562 15.3222L24.0468 15.1852ZM7.70641 13.6883L6.88018 14.5178L7.58869 15.2235L8.41491 14.394L7.70641 13.6883ZM10.1438 15.3222L10.3041 14.1624L9.31355 14.0254L9.1532 15.1852L10.1438 15.3222ZM9.89256 15.3573L10.3644 16.4288L11.2796 16.0258L10.8078 14.9543L9.89256 15.3573ZM7.15726 28.2799L7.93806 27.4075L7.19291 26.7406L6.41211 27.613L7.15726 28.2799ZM26.7878 27.613L26.007 26.7406L25.2619 27.4075L26.0427 28.2799L26.7878 27.613ZM28.5602 12.8721L28.5466 14.0427L29.5465 14.0543L29.5601 12.8837L28.5602 12.8721ZM27.6422 12.4449L28.528 11.6795L27.8743 10.9228L26.9884 11.6882L27.6422 12.4449ZM18.4622 6.8481L17.9301 5.80524L17.0394 6.25976L17.5715 7.30261L18.4622 6.8481ZM15.6284 7.30261L16.1606 6.25976L15.2698 5.80524L14.7377 6.8481L15.6284 7.30261ZM14.4018 28.0976V30.439H15.4018V28.0976H14.4018ZM18.7982 30.439V28.0976H17.7982V30.439H18.7982ZM5.42478 15.2035L3.09675 15.4539L3.20369 16.4481L5.53171 16.1977L5.42478 15.2035ZM3.48989 19.1091L5.81793 18.8587L5.711 17.8645L3.38296 18.1148L3.48989 19.1091ZM15.6019 8.68054L13.5569 7.54003L13.0698 8.41339L15.1148 9.5539L15.6019 8.68054ZM10.2765 13.4218L12.3214 14.5624L12.8085 13.6891L10.7636 12.5485L10.2765 13.4218ZM20.8785 14.5624L22.9235 13.4218L22.4364 12.5485L20.3914 13.6891L20.8785 14.5624ZM19.6431 7.54003L17.598 8.68052L18.0851 9.55389L20.1301 8.41339L19.6431 7.54003ZM22.8355 16.4288L23.7791 14.2859L22.8639 13.8829L21.9203 16.0258L22.8355 16.4288ZM22.8959 14.1624L23.2165 16.4818L24.2071 16.3449L23.8864 14.0254L22.8959 14.1624ZM26.3198 14.5178L24.6673 12.8589L23.9588 13.5647L25.6113 15.2235L26.3198 14.5178ZM9.98341 16.4818L10.3041 14.1624L9.31355 14.0254L8.99284 16.3449L9.98341 16.4818ZM8.53263 12.8589L6.8802 14.5178L7.58867 15.2235L9.24111 13.5647L8.53263 12.8589ZM9.42074 14.2859L10.3644 16.4288L11.2796 16.0258L10.3359 13.8829L9.42074 14.2859ZM7.19293 26.7406L5.63131 28.4853L6.37643 29.1522L7.93805 27.4075L7.19293 26.7406ZM25.2619 27.4075L26.8235 29.1522L27.5686 28.4853L26.007 26.7406L25.2619 27.4075ZM17.1 2.34146V0H16.1V2.34146H17.1ZM12.3073 4.79268H14.6488V3.79268H12.3073V4.79268ZM18.5512 4.79268H20.8927V3.79268H18.5512V4.79268ZM28.5878 11.7073V14.0488H29.5878V11.7073H28.5878ZM32.6 10.0366H30.2585V11.0366H32.6V10.0366ZM29.5878 9.36585V7.02439H28.5878V9.36585H29.5878ZM25.5756 11.0366H27.9171V10.0366H25.5756V11.0366ZM2.94144 10.0366H0.599976V11.0366H2.94144V10.0366ZM4.61217 14.0488V11.7073H3.61217V14.0488H4.61217ZM4.61217 9.36585V7.02439H3.61217V9.36585H4.61217ZM5.2829 11.0366H7.62437V10.0366H5.2829V11.0366ZM28.5738 11.7014L28.5466 14.0427L29.5465 14.0543L29.5737 11.713L28.5738 11.7014ZM27.8743 10.9228L26.1024 12.4535L26.7561 13.2102L28.528 11.6795L27.8743 10.9228ZM4.67193 11.6795L6.44376 13.2102L7.09749 12.4535L5.32565 10.9228L4.67193 11.6795ZM3.62632 11.713L3.6534 14.0543L4.65333 14.0427L4.62625 11.7015L3.62632 11.713ZM17.0394 6.25973L18.1035 8.34544L18.9942 7.89098L17.9301 5.80527L17.0394 6.25973ZM16.1 6.2439V8.58537H17.1V6.2439H16.1ZM15.2698 5.80527L14.2057 7.89098L15.0965 8.34544L16.1606 6.25973L15.2698 5.80527ZM29.7635 18.612L30.7578 18.719L30.7578 18.7189L29.7635 18.612ZM27.4355 18.3616L28.4298 18.4686L28.4298 18.4685L27.4355 18.3616ZM3.43642 18.612L2.44216 18.7189L2.44216 18.7189L3.43642 18.612ZM5.47824 15.7006L4.48398 15.8075L4.48398 15.8075L5.47824 15.7006ZM12.565 14.1257L13.4383 14.6129L13.4383 14.6128L12.565 14.1257ZM13.3134 7.97671L14.1867 8.4638L14.1868 8.46376L13.3134 7.97671ZM17.8416 9.1172L16.9682 9.60426L16.9682 9.60429L17.8416 9.1172ZM22.68 12.9851L23.5534 12.4981L23.5533 12.498L22.68 12.9851ZM22.3779 16.2273L21.9749 17.1425L21.9751 17.1425L22.3779 16.2273ZM24.3131 13.2118L25.0188 13.9203L25.0188 13.9202L24.3131 13.2118ZM23.3912 14.0939L23.5282 15.0845L23.2552 13.1032L23.3912 14.0939ZM7.23443 14.8706L7.94022 14.1622L7.94014 14.1621L7.23443 14.8706ZM9.80884 14.0939L9.94544 13.1033L9.67184 15.0845L9.80884 14.0939ZM10.822 16.2273L11.2248 17.1425L11.225 17.1425L10.822 16.2273ZM7.56549 27.074L8.23249 26.329L8.23242 26.3289L7.56549 27.074ZM25.6344 27.074L24.9676 26.3289L24.9674 26.329L25.6344 27.074ZM29.0466 14.0485L29.0351 15.0484L29.0352 15.0484L29.0466 14.0485ZM28.2011 11.3012L27.4445 11.955L27.4445 11.955L28.2011 11.3012ZM17.4847 6.0325L17.0303 5.14172L17.0303 5.14174L17.4847 6.0325ZM15.7152 6.0325L16.1697 5.14174L16.1696 5.14172L15.7152 6.0325ZM5.76446 18.3616L6.75873 18.2547L6.75873 18.2547L5.76446 18.3616ZM3.15022 15.951L4.14449 15.844L4.14448 15.844L3.15022 15.951ZM15.3584 9.11722L16.2317 9.60432L16.2318 9.60426L15.3584 9.11722ZM10.52 12.9851L9.64669 12.498L9.64666 12.4981L10.52 12.9851ZM20.6349 14.1257L19.7616 14.6128L19.7617 14.613L20.6349 14.1257ZM19.8866 7.97671L20.76 7.48961L20.76 7.4896L19.8866 7.97671ZM21.3452 15.3191L20.5267 15.8936L20.527 15.894L21.3452 15.3191ZM23.3215 14.0844L23.723 13.1685L22.9197 15.0001L23.3215 14.0844ZM23.2614 13.9735L22.443 14.5482L22.4433 14.5485L23.2614 13.9735ZM23.4811 14.0032L22.8522 13.2257L22.8522 13.2257L23.4811 14.0032ZM23.7118 16.4133L23.8486 17.4039L23.8487 17.4039L23.7118 16.4133ZM24.9539 15.8235L25.5828 16.6009L25.5828 16.6009L24.9539 15.8235ZM25.9655 14.8706L25.2598 14.1621L25.2598 14.1622L25.9655 14.8706ZM8.24617 15.8235L8.87512 15.046L8.87505 15.046L8.24617 15.8235ZM9.48812 16.4133L9.35122 17.4039L9.3513 17.4039L9.48812 16.4133ZM9.71888 14.0032L9.08991 14.7806L9.09 14.7807L9.71888 14.0032ZM8.88687 13.2118L8.18113 13.9203L8.18119 13.9203L8.88687 13.2118ZM9.93851 13.9735L10.7568 14.5483L10.757 14.5481L9.93851 13.9735ZM9.87834 14.0844L10.2817 14.9994L9.47637 13.1687L9.87834 14.0844ZM11.8548 15.3191L12.6731 15.8938L12.6731 15.8938L11.8548 15.3191ZM9.88555 27.9418L10.0125 26.9499L10.0125 26.9499L9.88555 27.9418ZM6.00387 28.8187L6.67082 28.0736L6.67079 28.0736L6.00387 28.8187ZM9.58837 30.2644L9.46138 31.2563L9.46151 31.2563L9.58837 30.2644ZM4.16403 24.576L5.14767 24.3958L5.14766 24.3958L4.16403 24.576ZM4.79639 26.9537L5.7277 26.5894L5.72767 26.5894L4.79639 26.9537ZM6.97695 26.1008L6.04568 26.4651L6.04569 26.4651L6.97695 26.1008ZM6.46718 24.1542L5.48355 24.3344L5.48355 24.3344L6.46718 24.1542ZM26.7327 24.1542L25.7491 23.9741L25.7491 23.9741L26.7327 24.1542ZM26.2229 26.1008L25.2917 25.7364L25.2916 25.7367L26.2229 26.1008ZM27.196 28.8187L26.5291 28.0736L26.529 28.0737L27.196 28.8187ZM28.4036 26.9537L29.3349 27.318L29.3349 27.3179L28.4036 26.9537ZM29.036 24.576L30.0196 24.7562L30.0196 24.7562L29.036 24.576ZM23.6116 30.2644L23.7384 31.2563L23.7386 31.2563L23.6116 30.2644ZM23.3144 27.9418L23.1874 26.9499L23.1874 26.9499L23.3144 27.9418ZM29.0737 11.7072L29.0622 12.7072L29.0637 12.7072L29.0737 11.7072ZM26.4293 12.8318L27.186 12.1781L27.186 12.1781L26.4293 12.8318ZM27.9302 13.0627L28.4553 13.9137L29.3064 13.3885L28.7811 12.5374L27.9302 13.0627ZM26.7003 11.0703L27.5512 10.545L27.026 9.69412L26.175 10.2193L26.7003 11.0703ZM4.99879 11.3012L5.7555 11.9549L5.75551 11.9549L4.99879 11.3012ZM6.77062 12.8318L6.01394 12.1781L6.01385 12.1782L6.77062 12.8318ZM6.49962 11.0703L7.02486 10.2193L6.17392 9.69411L5.64867 10.545L6.49962 11.0703ZM5.26979 13.0627L4.41884 12.5375L3.89358 13.3884L4.74456 13.9137L5.26979 13.0627ZM4.12628 11.7072L4.13622 12.7072L4.13786 12.7072L4.12628 11.7072ZM4.15337 14.0485L4.16475 15.0484L4.16485 15.0484L4.15337 14.0485ZM5.30789 13.9582L6.30539 13.8876L6.30539 13.8876L5.30789 13.9582ZM5.30018 13.0334L6.29133 13.1662L6.42411 12.175L5.43298 12.0422L5.30018 13.0334ZM2.97945 12.7224L3.11225 11.7313L2.12107 11.5985L1.9883 12.5897L2.97945 12.7224ZM2.97228 14.1237L3.96978 14.053L3.96978 14.053L2.97228 14.1237ZM18.5489 8.11821L19.0033 9.00899L19.0033 9.00897L18.5489 8.11821ZM19.0097 6.45495L19.8577 5.92509L19.3278 5.07694L18.4797 5.6069L19.0097 6.45495ZM17.0239 7.69577L16.494 6.84772L15.6459 7.37767L16.1759 8.22573L17.0239 7.69577ZM14.6511 8.11821L14.1966 9.00898L14.1967 9.00899L14.6511 8.11821ZM16.176 7.69577L17.024 8.22573L17.554 7.37767L16.7059 6.84772L16.176 7.69577ZM14.1903 6.45495L14.7202 5.6069L13.8721 5.07694L13.3422 5.92509L14.1903 6.45495ZM30.7578 18.7189C30.886 17.5269 30.0235 16.4567 28.8317 16.3285L28.6177 18.317C28.7115 18.3271 28.7793 18.4114 28.7693 18.505L30.7578 18.7189ZM28.8317 16.3285C27.6398 16.2003 26.5694 17.0625 26.4412 18.2547L28.4298 18.4685C28.4398 18.3747 28.524 18.3069 28.6177 18.317L28.8317 16.3285ZM18.2982 27.0976H14.9018V29.0976H18.2982V27.0976ZM14.9018 31.439H18.2982V29.439H14.9018V31.439ZM6.75873 18.2547L6.47251 15.5937L4.48398 15.8075L4.7702 18.4685L6.75873 18.2547ZM2.15595 16.0579L2.44216 18.7189L4.43069 18.505L4.14449 15.844L2.15595 16.0579ZM13.4383 14.6128L16.2317 9.60432L14.485 8.63013L11.6916 13.6386L13.4383 14.6128ZM12.44 7.48962L9.64669 12.498L11.3934 13.4722L14.1867 8.4638L12.44 7.48962ZM16.9682 9.60429L19.7616 14.6128L21.5083 13.6386L18.7149 8.63012L16.9682 9.60429ZM23.5533 12.498L20.76 7.48961L19.0133 8.46381L21.8066 13.4722L23.5533 12.498ZM19.7617 14.613C20.0041 15.0476 20.2649 15.5206 20.5267 15.8936L22.1637 14.7446C21.975 14.4758 21.7709 14.1093 21.5082 13.6385L19.7617 14.613ZM20.527 15.894C20.8013 16.2845 21.2463 16.8216 21.9749 17.1425L22.781 15.3121C22.5405 15.2062 22.353 15.014 22.1634 14.7442L20.527 15.894ZM22.9201 15.0003C22.8746 14.9803 22.8335 14.9563 22.7962 14.9304C22.7771 14.9171 22.7595 14.9036 22.7436 14.8906C22.7418 14.8891 22.7403 14.8879 22.7393 14.8871C22.7346 14.8833 22.7413 14.8887 22.7449 14.8917C22.7456 14.8923 22.7528 14.8981 22.7619 14.9052C22.7679 14.9098 22.7864 14.9237 22.799 14.9327C22.8363 14.9579 23.4739 15.1115 24.0364 14.8675C24.3719 14.2101 24.1342 13.4638 24.1014 13.4276C24.0901 13.4159 24.073 13.3989 24.0674 13.3935C24.0588 13.3853 24.0519 13.3789 24.0511 13.3783C24.0474 13.3749 24.0412 13.3693 24.0454 13.3731C24.0505 13.3777 24.0567 13.3833 24.0635 13.3898C24.1132 13.4371 24.1183 13.4536 24.0796 13.3985L22.4433 14.5485C22.5371 14.682 22.6159 14.7731 22.6844 14.8382C22.6935 14.8469 22.7011 14.8539 22.7068 14.8591C22.7112 14.863 22.7051 14.8575 22.7014 14.8542C22.7007 14.8535 22.6938 14.8472 22.6852 14.839C22.6796 14.8336 22.6625 14.8166 22.6512 14.8049C22.6185 14.7687 22.3807 14.0224 22.7162 13.365C23.2787 13.121 23.9163 13.2746 23.9536 13.2997C23.9663 13.3088 23.9847 13.3226 23.9907 13.3272C23.9998 13.3344 24.007 13.3402 24.0077 13.3408C24.0113 13.3437 24.0178 13.3491 24.013 13.3451C24.0118 13.3441 24.0101 13.3427 24.008 13.341C23.99 13.3263 23.9669 13.3085 23.939 13.289C23.8841 13.2508 23.8121 13.2075 23.723 13.1685L22.9201 15.0003ZM24.0799 13.3989C23.9778 13.2536 23.8421 13.016 23.5534 12.4981L21.8066 13.4721C22.0726 13.9493 22.2669 14.2973 22.443 14.5482L24.0799 13.3989ZM23.6073 12.5033C23.1869 12.9221 22.9907 13.1137 22.8522 13.2257L24.1099 14.7807C24.3486 14.5877 24.6316 14.306 25.0188 13.9203L23.6073 12.5033ZM22.8522 13.2257C22.799 13.2687 22.8088 13.2539 22.8706 13.2216C22.8786 13.2174 22.8878 13.2127 22.8982 13.2077C22.9008 13.2065 22.9038 13.205 22.9074 13.2034C22.9083 13.203 22.9095 13.2024 22.9109 13.2018C22.9112 13.2016 22.9153 13.1997 22.9204 13.1974C22.926 13.1949 23.0187 13.1593 23.1085 13.1344C24.2718 13.7719 23.771 15.0072 23.7631 15.0111C23.7607 15.0122 23.7568 15.014 23.7554 15.0147C23.7546 15.0151 23.753 15.0158 23.7523 15.0162C23.7441 15.02 23.7374 15.023 23.7327 15.025C23.7109 15.0346 23.6891 15.0431 23.6674 15.0507C23.624 15.0657 23.5775 15.0776 23.5282 15.0845L23.2541 13.1033C23.158 13.1166 23.0769 13.1386 23.0135 13.1606C22.9817 13.1716 22.9536 13.1828 22.9295 13.1934C22.9242 13.1957 22.9171 13.1989 22.9088 13.2027C22.9081 13.2031 22.9065 13.2038 22.9057 13.2042C22.9043 13.2049 22.9004 13.2067 22.898 13.2078C22.8901 13.2117 22.3893 14.447 23.5525 15.0845C23.6424 15.0596 23.7351 15.024 23.7407 15.0215C23.7458 15.0192 23.7499 15.0173 23.7502 15.0171C23.7516 15.0165 23.7529 15.0159 23.7538 15.0155C23.7574 15.0138 23.7606 15.0122 23.7634 15.0109C23.7746 15.0055 23.7857 15 23.7967 14.9942C23.8819 14.9497 23.9834 14.883 24.11 14.7807L22.8522 13.2257ZM23.8487 17.4039C24.6366 17.2951 25.2116 16.9011 25.5828 16.6009L24.3249 15.046C24.0685 15.2534 23.8353 15.3868 23.5749 15.4228L23.8487 17.4039ZM25.5828 16.6009C25.9372 16.3142 26.3181 15.9309 26.6713 15.5791L25.2598 14.1622C24.8774 14.5431 24.5802 14.8395 24.3249 15.046L25.5828 16.6009ZM21.9751 17.1425C22.5635 17.4016 23.2123 17.4918 23.8486 17.4039L23.5749 15.4228C23.305 15.46 23.03 15.4217 22.7808 15.312L21.9751 17.1425ZM23.2552 13.1032C23.4103 13.0819 23.5727 13.1025 23.7234 13.1687L22.9197 15.0001C23.1138 15.0853 23.3243 15.1124 23.5271 15.0846L23.2552 13.1032ZM6.52865 15.5791C6.88184 15.9309 7.26278 16.3142 7.61729 16.601L8.87505 15.046C8.61971 14.8394 8.3225 14.5431 7.94022 14.1622L6.52865 15.5791ZM7.61722 16.6009C7.98834 16.9011 8.56339 17.295 9.35122 17.4039L9.62503 15.4228C9.36472 15.3868 9.13147 15.2534 8.87512 15.046L7.61722 16.6009ZM9.67184 15.0845C9.62251 15.0776 9.57603 15.0657 9.53253 15.0506C9.51079 15.0431 9.48882 15.0345 9.4665 15.0247C9.46298 15.0231 9.45373 15.019 9.4419 15.0134C9.44056 15.0128 9.43742 15.0113 9.43563 15.0104C9.43257 15.009 9.42362 15.0046 9.41774 15.0016C9.3973 14.991 8.92135 13.7914 10.0015 13.1182C10.1234 13.1422 10.2529 13.1859 10.2644 13.1908C10.2688 13.1926 10.2756 13.1956 10.2781 13.1968C10.2796 13.1975 10.2824 13.1987 10.2836 13.1992C10.286 13.2003 10.288 13.2013 10.2893 13.2018C10.294 13.204 10.2978 13.2058 10.3004 13.2071C10.3115 13.2124 10.321 13.2172 10.329 13.2214C10.3911 13.2538 10.4009 13.2687 10.3478 13.2257L9.09 14.7807C9.2165 14.883 9.31816 14.9498 9.40374 14.9945C9.41465 15.0002 9.42609 15.0059 9.43798 15.0116C9.44075 15.0129 9.44475 15.0148 9.44956 15.017C9.45082 15.0176 9.45281 15.0185 9.45527 15.0196C9.45648 15.0202 9.45922 15.0214 9.46076 15.0221C9.46327 15.0232 9.47011 15.0262 9.47444 15.0281C9.486 15.033 9.61553 15.0767 9.73736 15.1007C10.8175 14.4275 10.3416 13.2279 10.3211 13.2173C10.3153 13.2143 10.3063 13.2099 10.3032 13.2084C10.3015 13.2076 10.2983 13.2061 10.297 13.2054C10.285 13.1998 10.2755 13.1956 10.2713 13.1938C10.2466 13.1829 10.2183 13.1716 10.1866 13.1606C10.1231 13.1386 10.042 13.1166 9.94585 13.1033L9.67184 15.0845ZM10.3479 13.2258C10.2093 13.1137 10.013 12.922 9.59255 12.5033L8.18119 13.9203C8.5685 14.3061 8.85143 14.5877 9.08991 14.7806L10.3479 13.2258ZM9.64666 12.4981C9.35797 13.0158 9.22212 13.2536 9.12004 13.399L10.757 14.5481C10.933 14.2973 11.1273 13.9494 11.3934 13.4722L9.64666 12.4981ZM9.1202 13.3988C9.08137 13.4541 9.08669 13.4372 9.13699 13.3893C9.14371 13.383 9.1505 13.3767 9.15727 13.3707C9.158 13.37 9.15859 13.3695 9.15895 13.3691C9.16016 13.3681 9.15851 13.3695 9.15782 13.3702C9.15776 13.3702 9.15469 13.3729 9.15092 13.3764C9.14841 13.3787 9.14067 13.3858 9.13546 13.3907C9.12088 13.4048 8.90393 13.7237 8.82431 14.0807C9.3454 14.9945 10.4171 14.9211 10.4382 14.9051C10.4448 14.9 10.4542 14.8924 10.4571 14.89C10.4614 14.8865 10.4649 14.8836 10.4649 14.8836C10.4674 14.8815 10.4628 14.8854 10.4587 14.8887C10.4417 14.9027 10.4237 14.9165 10.4047 14.9298C10.3672 14.9559 10.3259 14.98 10.2803 15L9.47637 13.1687C9.38724 13.2078 9.31512 13.2512 9.26007 13.2897C9.23225 13.3091 9.20877 13.3272 9.18966 13.3429C9.18506 13.3467 9.18012 13.3508 9.18251 13.3488C9.18293 13.3485 9.18405 13.3476 9.18476 13.347C9.18575 13.3461 9.18848 13.3439 9.19022 13.3425C9.19315 13.3401 9.20259 13.3325 9.20914 13.3273C9.23021 13.3114 10.302 13.238 10.823 14.1517C10.7434 14.5087 10.5265 14.8276 10.5119 14.8417C10.5067 14.8466 10.4989 14.8538 10.4964 14.8561C10.4927 14.8595 10.4896 14.8622 10.4896 14.8623C10.4889 14.8629 10.4873 14.8643 10.4886 14.8632C10.489 14.8628 10.4896 14.8622 10.4904 14.8615C10.4978 14.8549 10.5061 14.8473 10.5152 14.8387C10.5842 14.773 10.6632 14.6816 10.7568 14.5483L9.1202 13.3988ZM11.225 17.1425C11.9535 16.8216 12.3987 16.2846 12.6731 15.8938L11.0364 14.7444C10.8471 15.0139 10.6595 15.2062 10.4189 15.3121L11.225 17.1425ZM12.6731 15.8938C12.9351 15.5208 13.1959 15.0473 13.4383 14.6129L11.6916 13.6386C11.4289 14.1095 11.225 14.4759 11.0364 14.7444L12.6731 15.8938ZM9.3513 17.4039C9.98767 17.4918 10.6364 17.4016 11.2248 17.1425L10.4191 15.312C10.1699 15.4217 9.89495 15.46 9.62495 15.4228L9.3513 17.4039ZM9.47502 13.1693C9.62692 13.1024 9.7901 13.0818 9.94544 13.1033L9.67225 15.0845C9.87513 15.1125 10.0865 15.0854 10.2817 14.9994L9.47502 13.1693ZM14.9018 27.0976C12.6302 27.0976 11.134 27.0934 10.0125 26.9499L9.75856 28.9337C11.0367 29.0973 12.6843 29.0976 14.9018 29.0976V27.0976ZM10.0125 26.9499C8.95178 26.8141 8.51716 26.5838 8.23249 26.329L6.89849 27.8191C7.60107 28.4481 8.48513 28.7707 9.75859 28.9337L10.0125 26.9499ZM5.33692 29.5638C6.52935 30.6312 7.94011 31.0615 9.46138 31.2563L9.71536 29.2724C8.40558 29.1048 7.44478 28.7664 6.67082 28.0736L5.33692 29.5638ZM9.46151 31.2563C10.9223 31.4431 12.7454 31.439 14.9018 31.439V29.439C12.6934 29.439 11.02 29.4393 9.71523 29.2724L9.46151 31.2563ZM2.44216 18.7189C2.66961 20.8334 2.85877 23.0002 3.18039 24.7562L5.14766 24.3958C4.84365 22.736 4.66579 20.6907 4.43069 18.505L2.44216 18.7189ZM3.18039 24.7562C3.34377 25.6482 3.55671 26.5296 3.86512 27.318L5.72767 26.5894C5.4849 25.9688 5.29985 25.2268 5.14767 24.3958L3.18039 24.7562ZM3.86509 27.3179C4.16921 28.0955 4.61912 28.9214 5.33695 29.5639L6.67079 28.0736C6.27417 27.7186 5.9701 27.2092 5.7277 26.5894L3.86509 27.3179ZM8.23242 26.3289C8.21183 26.3105 8.07844 26.1715 7.90821 25.7364L6.04569 26.4651C6.27757 27.0578 6.55675 27.5132 6.89855 27.8191L8.23242 26.3289ZM7.90822 25.7364C7.74238 25.3125 7.58996 24.7337 7.45082 23.9741L5.48355 24.3344C5.63381 25.1548 5.81409 25.8731 6.04568 26.4651L7.90822 25.7364ZM7.45082 23.9741C7.16744 22.4269 7.00297 20.5255 6.75873 18.2547L4.7702 18.4685C5.00661 20.6665 5.18253 22.691 5.48355 24.3344L7.45082 23.9741ZM26.4412 18.2546C26.1969 20.5255 26.0325 22.4268 25.7491 23.9741L27.7164 24.3344C28.0174 22.691 28.1933 20.6665 28.4298 18.4686L26.4412 18.2546ZM25.7491 23.9741C25.61 24.7337 25.4575 25.3125 25.2917 25.7364L27.1542 26.4651C27.3858 25.8731 27.5661 25.1548 27.7164 24.3344L25.7491 23.9741ZM25.2916 25.7367C25.1216 26.1715 24.9882 26.3104 24.9676 26.3289L26.3013 27.8192C26.6432 27.5133 26.9225 27.0578 27.1543 26.4649L25.2916 25.7367ZM27.8629 29.5639C28.5808 28.9214 29.0307 28.0955 29.3349 27.318L27.4723 26.5894C27.2298 27.2092 26.9258 27.7186 26.5291 28.0736L27.8629 29.5639ZM29.3349 27.3179C29.6432 26.5296 29.8562 25.6483 30.0196 24.7562L28.0523 24.3958C27.9001 25.2267 27.715 25.9688 27.4723 26.5895L29.3349 27.3179ZM30.0196 24.7562C30.3412 23.0003 30.5303 20.8334 30.7578 18.719L28.7693 18.505C28.5341 20.6908 28.3563 22.736 28.0523 24.3958L30.0196 24.7562ZM18.2982 31.439C20.4545 31.439 22.2775 31.4431 23.7384 31.2563L23.4847 29.2724C22.1799 29.4393 20.5066 29.439 18.2982 29.439V31.439ZM23.7386 31.2563C25.2598 31.0615 26.6707 30.6312 27.863 29.5638L26.529 28.0737C25.7552 28.7664 24.7944 29.1048 23.4846 29.2724L23.7386 31.2563ZM24.9674 26.329C24.6828 26.5838 24.2482 26.8141 23.1874 26.9499L23.4413 28.9337C24.7148 28.7707 25.5989 28.4481 26.3015 27.8191L24.9674 26.329ZM23.1874 26.9499C22.0659 27.0934 20.5698 27.0976 18.2982 27.0976V29.0976C20.5156 29.0976 22.1632 29.0973 23.4413 28.9337L23.1874 26.9499ZM15.6488 4.29268C15.6488 3.76731 16.0746 3.34146 16.6 3.34146V1.34146C14.97 1.34146 13.6488 2.66278 13.6488 4.29268H15.6488ZM16.6 -1C13.6769 -1 11.3073 1.36962 11.3073 4.29268H13.3073C13.3073 2.47418 14.7815 1 16.6 1V-1ZM16.6 3.34146C17.1254 3.34146 17.5512 3.76731 17.5512 4.29268H19.5512C19.5512 2.66278 18.23 1.34146 16.6 1.34146V3.34146ZM21.8927 4.29268C21.8927 1.36962 19.5231 -1 16.6 -1V1C18.4185 1 19.8927 2.47418 19.8927 4.29268H21.8927ZM29.2585 10.5366C29.2585 10.6309 29.1821 10.7073 29.0878 10.7073V12.7073C30.2866 12.7073 31.2585 11.7354 31.2585 10.5366H29.2585ZM29.0878 15.0488C31.5797 15.0488 33.6 13.0285 33.6 10.5366H31.6C31.6 11.924 30.4752 13.0488 29.0878 13.0488V15.0488ZM28.9171 10.5366C28.9171 10.4423 28.9935 10.3659 29.0878 10.3659V8.36585C27.889 8.36585 26.9171 9.33772 26.9171 10.5366H28.9171ZM29.0878 6.02439C26.5958 6.02439 24.5756 8.04456 24.5756 10.5366H26.5756C26.5756 9.14915 27.7004 8.02439 29.0878 8.02439V6.02439ZM29.0878 10.3659C29.1821 10.3659 29.2585 10.4423 29.2585 10.5366H31.2585C31.2585 9.33772 30.2866 8.36585 29.0878 8.36585V10.3659ZM33.6 10.5366C33.6 8.04456 31.5797 6.02439 29.0878 6.02439V8.02439C30.4752 8.02439 31.6 9.14915 31.6 10.5366H33.6ZM4.11217 10.7073C4.01788 10.7073 3.94144 10.6309 3.94144 10.5366H1.94144C1.94144 11.7354 2.91332 12.7073 4.11217 12.7073V10.7073ZM-0.400024 10.5366C-0.400024 13.0285 1.62014 15.0488 4.11217 15.0488V13.0488C2.72474 13.0488 1.59998 11.924 1.59998 10.5366H-0.400024ZM3.94144 10.5366C3.94144 10.4423 4.01788 10.3659 4.11217 10.3659V8.36585C2.91332 8.36585 1.94144 9.33773 1.94144 10.5366H3.94144ZM4.11217 6.02439C1.62016 6.02439 -0.400024 8.04457 -0.400024 10.5366H1.59998C1.59998 9.14914 2.72472 8.02439 4.11217 8.02439V6.02439ZM4.11217 10.3659C4.20646 10.3659 4.2829 10.4423 4.2829 10.5366H6.2829C6.2829 9.33773 5.31103 8.36585 4.11217 8.36585V10.3659ZM8.62437 10.5366C8.62437 8.04457 6.60419 6.02439 4.11217 6.02439V8.02439C5.49962 8.02439 6.62437 9.14914 6.62437 10.5366H8.62437ZM29.0878 10.7073C29.0874 10.7073 29.0862 10.7073 29.0837 10.7073L29.0637 12.7072C29.0707 12.7073 29.0788 12.7073 29.0878 12.7073V10.7073ZM29.0352 15.0484C29.048 15.0485 29.0674 15.0488 29.0878 15.0488V13.0488C29.0807 13.0488 29.0727 13.0487 29.0579 13.0485L29.0352 15.0484ZM29.0853 10.7073C29.0348 10.7067 28.9915 10.6864 28.9578 10.6474L27.4445 11.955C27.8382 12.4107 28.4168 12.6997 29.0622 12.7072L29.0853 10.7073ZM25.6725 13.4856C26.4857 14.4269 27.6899 15.033 29.0351 15.0484L29.0581 13.0485C28.3102 13.0399 27.6407 12.7044 27.186 12.1781L25.6725 13.4856ZM28.9578 10.6474C28.9437 10.631 28.9339 10.6141 28.9275 10.5973C28.9213 10.581 28.9171 10.5613 28.9171 10.5366H26.9171C26.9171 11.0784 27.1153 11.574 27.4445 11.955L28.9578 10.6474ZM24.5756 10.5366C24.5756 11.6621 24.9905 12.6961 25.6726 13.4856L27.186 12.1781C26.8057 11.7379 26.5756 11.1638 26.5756 10.5366H24.5756ZM26.6712 15.5792C27.2024 15.0501 27.591 14.6661 27.8903 14.3871C28.1997 14.0987 28.3649 13.9695 28.4553 13.9137L27.405 12.2117C27.133 12.3796 26.8447 12.6277 26.5267 12.924C26.1987 13.2297 25.7862 13.6379 25.2598 14.1621L26.6712 15.5792ZM28.7811 12.5374L27.5512 10.545L25.8493 11.5956L27.0792 13.588L28.7811 12.5374ZM26.175 10.2193C25.395 10.7008 24.5078 11.6063 23.6073 12.5033L25.0188 13.9202C26.0097 12.9332 26.6947 12.2489 27.2255 11.9213L26.175 10.2193ZM4.2829 10.5366C4.2829 10.5613 4.27861 10.581 4.27243 10.5973C4.26607 10.6141 4.25624 10.631 4.24207 10.6474L5.75551 11.9549C6.08455 11.574 6.2829 11.0785 6.2829 10.5366H4.2829ZM7.52731 13.4856C8.20946 12.6961 8.62437 11.6621 8.62437 10.5366H6.62437C6.62437 11.1638 6.39428 11.7379 6.01394 12.1781L7.52731 13.4856ZM9.59261 12.5033C8.69213 11.6063 7.8049 10.7008 7.02486 10.2193L5.97438 11.9213C6.50525 12.2489 7.19023 12.9332 8.18113 13.9203L9.59261 12.5033ZM5.64867 10.545L4.41884 12.5375L6.12074 13.588L7.35057 11.5956L5.64867 10.545ZM4.74456 13.9137C4.83507 13.9695 5.00029 14.0988 5.30964 14.3871C5.60899 14.6661 5.99756 15.0501 6.52873 15.5791L7.94014 14.1621C7.4138 13.6379 7.00124 13.2297 6.67326 12.924C6.35526 12.6276 6.06692 12.3796 5.79502 12.2118L4.74456 13.9137ZM4.24208 10.6474C4.2084 10.6864 4.16512 10.7067 4.11471 10.7073L4.13786 12.7072C4.78326 12.6997 5.36181 12.4106 5.7555 11.9549L4.24208 10.6474ZM4.16485 15.0484C5.50992 15.033 6.71425 14.4269 7.52739 13.4855L6.01385 12.1782C5.5593 12.7044 4.88967 13.0399 4.14188 13.0485L4.16485 15.0484ZM4.11635 10.7073C4.11386 10.7073 4.11263 10.7073 4.11217 10.7073V12.7073C4.12111 12.7073 4.12928 12.7073 4.13622 12.7072L4.11635 10.7073ZM4.11217 15.0488C4.13257 15.0488 4.15201 15.0485 4.16475 15.0484L4.14198 13.0485C4.12731 13.0487 4.11928 13.0488 4.11217 13.0488V15.0488ZM6.47251 15.5937C6.39464 14.8697 6.33638 14.3251 6.30539 13.8876L4.31039 14.0289C4.34453 14.5108 4.40752 15.0967 4.48398 15.8075L6.47251 15.5937ZM6.30539 13.8876C6.27295 13.4297 6.28261 13.2312 6.29133 13.1662L4.30904 12.9006C4.27183 13.1783 4.27621 13.5464 4.31039 14.0289L6.30539 13.8876ZM5.43298 12.0422L3.11225 11.7313L2.84665 13.7136L5.16738 14.0245L5.43298 12.0422ZM1.9883 12.5897C1.91799 13.1145 1.93829 13.6793 1.97478 14.1944L3.96978 14.053C3.93525 13.5656 3.92858 13.1689 3.9706 12.8552L1.9883 12.5897ZM1.97478 14.1944C2.0126 14.7282 2.08109 15.362 2.15596 16.0579L4.14448 15.844C4.06825 15.1354 4.00446 14.5425 3.96978 14.053L1.97478 14.1944ZM17.5512 4.29268C17.5512 4.66058 17.3431 4.98217 17.0303 5.14172L17.9392 6.92328C18.8974 6.43446 19.5512 5.43906 19.5512 4.29268H17.5512ZM19.0033 9.00897C20.7132 8.1366 21.8927 6.35461 21.8927 4.29268H19.8927C19.8927 5.5729 19.1618 6.68284 18.0944 7.22745L19.0033 9.00897ZM17.0303 5.14174C16.9035 5.20642 16.7593 5.2439 16.6 5.2439V7.2439C17.0825 7.2439 17.5374 7.12825 17.9392 6.92326L17.0303 5.14174ZM16.6 9.58537C17.4609 9.58537 18.2797 9.37814 19.0033 9.00899L18.0944 7.22744C17.6457 7.45636 17.1377 7.58537 16.6 7.58537V9.58537ZM20.76 7.4896C20.442 6.91952 20.1393 6.37571 19.8577 5.92509L18.1616 6.98481C18.4111 7.38416 18.6872 7.87915 19.0133 8.46382L20.76 7.4896ZM18.4797 5.6069L16.494 6.84772L17.5539 8.54381L19.5396 7.30299L18.4797 5.6069ZM16.1759 8.22573C16.3877 8.56459 16.6321 9.00149 16.9682 9.60426L18.7149 8.63015C18.3874 8.04274 18.116 7.5563 17.872 7.1658L16.1759 8.22573ZM16.6 5.2439C16.4406 5.2439 16.2965 5.20642 16.1697 5.14174L15.2607 6.92326C15.6625 7.12825 16.1175 7.2439 16.6 7.2439V5.2439ZM14.1967 9.00899C14.9202 9.37814 15.739 9.58537 16.6 9.58537V7.58537C16.0623 7.58537 15.5543 7.45636 15.1055 7.22744L14.1967 9.00899ZM16.1696 5.14172C15.8569 4.98217 15.6488 4.66058 15.6488 4.29268H13.6488C13.6488 5.43906 14.3026 6.43446 15.2608 6.92328L16.1696 5.14172ZM11.3073 4.29268C11.3073 6.35459 12.4867 8.13659 14.1966 9.00898L15.1056 7.22744C14.0381 6.68284 13.3073 5.57292 13.3073 4.29268H11.3073ZM16.2318 9.60426C16.5679 9.00148 16.8123 8.56458 17.024 8.22573L15.328 7.1658C15.084 7.5563 14.8126 8.04274 14.485 8.63018L16.2318 9.60426ZM16.7059 6.84772L14.7202 5.6069L13.6604 7.30299L15.6461 8.54381L16.7059 6.84772ZM13.3422 5.92509C13.0607 6.37573 12.758 6.91953 12.44 7.48966L14.1868 8.46376C14.5128 7.87914 14.7889 7.38414 15.0384 6.98481L13.3422 5.92509Z" fill="#1E1E1E" mask="url(#path-1-inside-1_84_394)"/>
<path d="M5.6731 23.8049H27.5268H5.6731Z" fill="#1E1E1E"/>
<path d="M5.6731 23.8049H27.5268" stroke="#1E1E1E" stroke-width="2" stroke-linecap="round"/>
</svg>
