<svg width="35" height="6" viewBox="0 0 35 6" fill="none" xmlns="http://www.w3.org/2000/svg">
<path d="M31.6 5C32.7046 5 33.6 4.1046 33.6 3C33.6 1.8954 32.7046 1 31.6 1C30.4954 1 29.6 1.8954 29.6 3C29.6 4.1046 30.4954 5 31.6 5Z" fill="#1E1E1E" stroke="black" stroke-width="2" stroke-linecap="round" stroke-linejoin="round"/>
<path d="M17.6001 5C18.7047 5 19.6001 4.1046 19.6001 3C19.6001 1.8954 18.7047 1 17.6001 1C16.4955 1 15.6001 1.8954 15.6001 3C15.6001 4.1046 16.4955 5 17.6001 5Z" fill="#1E1E1E" stroke="black" stroke-width="2" stroke-linecap="round" stroke-linejoin="round"/>
<path d="M3.59998 5C4.70454 5 5.59998 4.1046 5.59998 3C5.59998 1.8954 4.70454 1 3.59998 1C2.49542 1 1.59998 1.8954 1.59998 3C1.59998 4.1046 2.49542 5 3.59998 5Z" fill="#1E1E1E" stroke="black" stroke-width="2" stroke-linecap="round" stroke-linejoin="round"/>
</svg>
