<svg width="33" height="32" viewBox="0 0 33 32" fill="none" xmlns="http://www.w3.org/2000/svg">
<path fill-rule="evenodd" clip-rule="evenodd" d="M29.604 1.28404C27.8919 -0.428009 25.1161 -0.428015 23.404 1.28404L2.71516 21.9729C2.10316 22.5849 1.68599 23.3644 1.51626 24.213L0.658356 28.5025C0.249348 30.5475 2.05239 32.3506 4.09743 31.9416L8.38692 31.0837C9.23562 30.914 10.0151 30.4968 10.6271 29.8848L31.3159 9.19595C33.028 7.48391 33.028 4.70814 31.3159 2.99608L29.604 1.28404ZM25.4706 3.35065C26.0414 2.77998 26.9666 2.77998 27.5374 3.35065L29.2493 5.06271C29.8201 5.63339 29.8201 6.55864 29.2493 7.12933L25.3452 11.0334L21.5667 7.25471L25.4706 3.35065ZM19.4999 9.32135L4.78178 24.0395C4.57778 24.2435 4.43874 24.5033 4.38215 24.7862L3.52425 29.0757L7.81375 28.2177C8.09664 28.1612 8.35647 28.0222 8.56047 27.8182L23.2786 13.1L19.4999 9.32135Z" fill="#0F0F0F"/>
</svg>
