<svg width="25" height="24" viewBox="0 0 25 24" fill="none" xmlns="http://www.w3.org/2000/svg">
<path d="M16.9333 5.82C16.2499 5.03953 15.8732 4.0374 15.8733 3H12.7833V15.4C12.76 16.0712 12.4768 16.7071 11.9936 17.1735C11.5104 17.6399 10.8649 17.9004 10.1933 17.9C8.77331 17.9 7.59331 16.74 7.59331 15.3C7.59331 13.58 9.25331 12.29 10.9633 12.82V9.66C7.51331 9.2 4.49331 11.88 4.49331 15.3C4.49331 18.63 7.25331 21 10.1833 21C13.3233 21 15.8733 18.45 15.8733 15.3V9.01C17.1263 9.90985 18.6307 10.3926 20.1733 10.39V7.3C20.1733 7.3 18.2933 7.39 16.9333 5.82Z" fill="#1E1E1E"/>
</svg>
