<svg width="25" height="24" viewBox="0 0 25 24" fill="none" xmlns="http://www.w3.org/2000/svg">
<path d="M8.46666 2H16.8667C20.0667 2 22.6667 4.6 22.6667 7.8V16.2C22.6667 17.7383 22.0556 19.2135 20.9679 20.3012C19.8802 21.3889 18.4049 22 16.8667 22H8.46666C5.26666 22 2.66666 19.4 2.66666 16.2V7.8C2.66666 6.26174 3.27773 4.78649 4.36544 3.69878C5.45315 2.61107 6.9284 2 8.46666 2ZM8.26666 4C7.31188 4 6.3962 4.37928 5.72107 5.05442C5.04594 5.72955 4.66666 6.64522 4.66666 7.6V16.4C4.66666 18.39 6.27666 20 8.26666 20H17.0667C18.0214 20 18.9371 19.6207 19.6122 18.9456C20.2874 18.2705 20.6667 17.3548 20.6667 16.4V7.6C20.6667 5.61 19.0567 4 17.0667 4H8.26666ZM17.9167 5.5C18.2482 5.5 18.5661 5.6317 18.8005 5.86612C19.035 6.10054 19.1667 6.41848 19.1667 6.75C19.1667 7.08152 19.035 7.39946 18.8005 7.63388C18.5661 7.8683 18.2482 8 17.9167 8C17.5851 8 17.2672 7.8683 17.0328 7.63388C16.7984 7.39946 16.6667 7.08152 16.6667 6.75C16.6667 6.41848 16.7984 6.10054 17.0328 5.86612C17.2672 5.6317 17.5851 5.5 17.9167 5.5ZM12.6667 7C13.9927 7 15.2645 7.52678 16.2022 8.46447C17.1399 9.40215 17.6667 10.6739 17.6667 12C17.6667 13.3261 17.1399 14.5979 16.2022 15.5355C15.2645 16.4732 13.9927 17 12.6667 17C11.3406 17 10.0688 16.4732 9.13112 15.5355C8.19344 14.5979 7.66666 13.3261 7.66666 12C7.66666 10.6739 8.19344 9.40215 9.13112 8.46447C10.0688 7.52678 11.3406 7 12.6667 7ZM12.6667 9C11.871 9 11.1079 9.31607 10.5453 9.87868C9.98273 10.4413 9.66666 11.2044 9.66666 12C9.66666 12.7956 9.98273 13.5587 10.5453 14.1213C11.1079 14.6839 11.871 15 12.6667 15C13.4623 15 14.2254 14.6839 14.788 14.1213C15.3506 13.5587 15.6667 12.7956 15.6667 12C15.6667 11.2044 15.3506 10.4413 14.788 9.87868C14.2254 9.31607 13.4623 9 12.6667 9Z" fill="#1E1E1E"/>
</svg>
