<svg width="70" height="55" viewBox="0 0 70 55" fill="none" xmlns="http://www.w3.org/2000/svg">
<path fill-rule="evenodd" clip-rule="evenodd" d="M59.0995 0L61.805 5.278L61.2977 6.45309C58.0091 8.88655 56.6618 11.6874 55.6909 14.4042L53.16 14.0026L50.4545 8.72459L53.4241 1.72329L59.0995 0ZM56.5732 14.6374L56.4623 15.1559L58.9091 19.0909L68.6759 13.8602L69.9159 8.06014L64.4291 5.80795L61.885 7.14986C58.7923 9.42141 57.5141 12.0211 56.5732 14.6374Z" fill="#F2B905"/>
<path d="M11.6126 11.25H25.0217L31.7262 22.8626L25.0217 34.4752H11.6126L4.90809 22.8626L11.6126 11.25Z" fill="#F2B905"/>
<path d="M34.392 24.3415H47.8009L54.5055 35.9541L47.8009 47.5668H34.392L27.6875 35.9541L34.392 24.3415Z" fill="#F2B905"/>
<path d="M25.451 18.8281L24.9503 21.7045H17.2053L17.706 18.8281H25.451ZM20.0071 12.6705L17.3118 28.1818H13.6683L16.353 12.6705H20.0071ZM28.956 12.6705L26.2606 28.1818H22.6278L25.3125 12.6705H28.956ZM34.0696 16.6548L32.0774 28.1818H28.5618L30.5646 16.6548H34.0696ZM30.8736 13.7465C30.8594 13.1925 31.044 12.7521 31.4275 12.4254C31.8182 12.0987 32.2763 11.9318 32.8019 11.9247C33.3061 11.9176 33.7535 12.0668 34.1442 12.3722C34.5348 12.6705 34.7337 13.086 34.7408 13.6186C34.755 14.1726 34.5668 14.6129 34.1761 14.9396C33.7926 15.2663 33.3381 15.4332 32.8125 15.4404C32.3082 15.4475 31.8608 15.3019 31.4702 15.0035C31.0866 14.6981 30.8878 14.2791 30.8736 13.7465ZM38.7251 25.5824L42.294 16.6548H46.0759L40.6108 28.1818H38.3842L38.7251 25.5824ZM38.8104 16.6548L39.5774 25.8913L39.1939 28.1818H37.0525L35.1989 16.6548H38.8104ZM50.6782 28.3949C49.8827 28.3807 49.1582 28.2351 48.505 27.9581C47.8514 27.674 47.2977 27.2834 46.8432 26.7862C46.3886 26.289 46.0509 25.7067 45.8309 25.039C45.6177 24.3644 45.54 23.6293 45.5964 22.8338L45.6391 22.4183C45.7245 21.5803 45.9232 20.799 46.2359 20.0746C46.5482 19.343 46.9673 18.7038 47.4927 18.157C48.0186 17.603 48.6364 17.1733 49.3464 16.8679C50.0641 16.5625 50.8664 16.4205 51.7541 16.4418C52.5568 16.456 53.2491 16.6158 53.8318 16.9212C54.4214 17.2265 54.9005 17.642 55.27 18.1676C55.6391 18.6861 55.895 19.2827 56.0368 19.9574C56.1859 20.625 56.2218 21.3352 56.1436 22.0881L55.9409 23.5476H46.7791L47.1414 21.2997L52.7877 21.3104L52.8514 21.0014C52.9014 20.6676 52.8873 20.3658 52.8091 20.0959C52.7309 19.826 52.5855 19.6129 52.3723 19.4567C52.1591 19.2933 51.8714 19.2045 51.5091 19.1904C51.0691 19.1832 50.7032 19.2791 50.4118 19.478C50.1277 19.6769 49.8968 19.9396 49.7195 20.2663C49.5491 20.593 49.4177 20.9481 49.3255 21.3317C49.2327 21.7081 49.1655 22.0703 49.1227 22.4183L49.0805 22.8231C49.0518 23.1712 49.0627 23.5085 49.1123 23.8352C49.1618 24.1619 49.2614 24.4567 49.4105 24.7195C49.5668 24.9822 49.7764 25.1953 50.0391 25.3587C50.3018 25.5149 50.6323 25.6001 51.03 25.6144C51.5627 25.6285 52.0595 25.5291 52.5214 25.316C52.9827 25.103 53.3986 24.8118 53.7677 24.4425L55.2273 26.3814C54.9077 26.8644 54.4959 27.255 53.9914 27.5533C53.4873 27.8445 52.9441 28.0576 52.3614 28.1925C51.7864 28.3345 51.225 28.402 50.6782 28.3949Z" fill="#464646"/>
<path d="M26.4382 39.6769L28.2493 29.0341H31.8928L30.0817 39.6769C29.9467 40.6854 29.6094 41.5767 29.0696 42.3509C28.5298 43.1179 27.8409 43.718 27.0028 44.1513C26.1648 44.5774 25.2344 44.7834 24.2116 44.7692C23.1889 44.7479 22.326 44.5384 21.6229 44.1406C20.9269 43.7429 20.4013 43.1818 20.0462 42.4574C19.6981 41.7259 19.5384 40.8558 19.5668 39.8473L23.2422 39.858C23.2209 40.1918 23.228 40.5149 23.2635 40.8274C23.299 41.1328 23.4055 41.385 23.5831 41.5838C23.7606 41.7827 24.0554 41.8856 24.4673 41.8928C24.8793 41.907 25.2202 41.804 25.49 41.5838C25.76 41.3565 25.9695 41.0725 26.1186 40.7315C26.2749 40.3906 26.3814 40.039 26.4382 39.6769ZM37.635 41.6477L38.3807 36.8537C38.4091 36.598 38.4055 36.353 38.37 36.1186C38.3416 35.8842 38.2528 35.6925 38.1037 35.5433C37.9616 35.3871 37.7379 35.3054 37.4325 35.2983C37.1555 35.2912 36.9212 35.3409 36.7294 35.4475C36.5376 35.554 36.385 35.7031 36.2713 35.8949C36.1577 36.0866 36.076 36.3068 36.0263 36.5554L32.5106 36.5767C32.539 35.9091 32.7166 35.3338 33.0433 34.8509C33.37 34.3679 33.789 33.9737 34.3004 33.6683C34.8118 33.3629 35.3693 33.1392 35.973 32.9972C36.5838 32.8551 37.184 32.7912 37.7735 32.8054C38.5831 32.8196 39.3146 32.99 39.968 33.3168C40.6285 33.6364 41.1364 34.1015 41.4915 34.7124C41.8537 35.316 41.9922 36.0511 41.907 36.9176L41.1505 41.6477C41.0866 42.0739 41.0298 42.5284 40.9801 43.0114C40.9304 43.4872 41.0014 43.9311 41.1932 44.343L41.1825 44.5455L37.7628 44.5561C37.6065 44.0945 37.5284 43.615 37.5284 43.1179C37.5284 42.6207 37.5639 42.1307 37.635 41.6477ZM38.7749 37.5035L38.4553 39.4212L37.081 39.4105C36.8111 39.4176 36.5519 39.4638 36.3033 39.549C36.0618 39.6271 35.8452 39.7408 35.6534 39.8899C35.4616 40.039 35.3019 40.2237 35.174 40.4439C35.0533 40.664 34.9751 40.9162 34.9396 41.2003C34.9112 41.392 34.9254 41.566 34.9822 41.7223C35.0462 41.8715 35.142 41.9922 35.2699 42.0845C35.4048 42.1769 35.5717 42.2265 35.7706 42.2337C36.076 42.2408 36.3707 42.184 36.6548 42.0632C36.9389 41.9425 37.184 41.772 37.3899 41.5519C37.603 41.3317 37.7486 41.076 37.8267 40.7848L38.4446 42.2869C38.26 42.6563 38.0469 42.9936 37.8054 43.299C37.571 43.6044 37.3047 43.8707 37.0064 44.098C36.7152 44.3182 36.3885 44.4886 36.0263 44.6094C35.664 44.7301 35.2628 44.7869 34.8225 44.7798C34.1904 44.7656 33.608 44.6129 33.0753 44.3217C32.5426 44.0305 32.12 43.6328 31.8075 43.1285C31.495 42.6243 31.3495 42.0419 31.3707 41.3814C31.3991 40.6144 31.5874 39.9787 31.9354 39.4745C32.2834 38.9702 32.7344 38.576 33.2884 38.2919C33.8495 38.0007 34.4567 37.7947 35.1101 37.674C35.7706 37.5533 36.424 37.4929 37.0703 37.4929L38.7749 37.5035ZM47.6277 35.6499L46.0832 44.5455H42.5781L44.581 33.0185H47.8514L47.6277 35.6499ZM46.7541 38.3878L45.9977 38.4197C46.0691 37.7308 46.2145 37.049 46.4345 36.3743C46.6618 35.6996 46.9745 35.0888 47.3723 34.5419C47.77 33.995 48.2636 33.5618 48.8532 33.2422C49.4423 32.9226 50.1314 32.7735 50.9195 32.7947C51.5023 32.809 51.985 32.9332 52.3686 33.1676C52.7523 33.3949 53.0505 33.7003 53.2636 34.0838C53.4836 34.4602 53.6259 34.8899 53.6895 35.3729C53.7605 35.8487 53.7714 36.3423 53.7218 36.8537L52.4432 44.5455H48.9382L50.1418 37.3011C50.1777 37.0028 50.1845 36.7223 50.1632 36.4595C50.1418 36.1967 50.0568 35.9837 49.9077 35.8203C49.7586 35.6499 49.5064 35.5611 49.1514 35.554C48.7677 35.5398 48.4373 35.6215 48.1605 35.799C47.8836 35.9695 47.6491 36.1967 47.4573 36.4808C47.2727 36.7649 47.12 37.0739 46.9991 37.4077C46.8855 37.7415 46.8041 38.0682 46.7541 38.3878ZM53.1355 38.3878L52.2086 38.4197C52.28 37.7308 52.4218 37.0525 52.635 36.385C52.855 35.7102 53.1568 35.0995 53.5405 34.5525C53.9309 34.0057 54.4177 33.5725 55 33.2528C55.5823 32.9332 56.2714 32.7805 57.0668 32.7947C57.7059 32.816 58.2314 32.9545 58.6436 33.2102C59.0555 33.4659 59.3677 33.8068 59.5809 34.233C59.8009 34.6591 59.9432 35.135 60.0073 35.6605C60.0709 36.1861 60.0745 36.7294 60.0177 37.2905L58.8032 44.5455H55.2877L56.5023 37.2798C56.5377 36.9886 56.5445 36.7152 56.5236 36.4595C56.5023 36.1967 56.4168 35.9837 56.2677 35.8203C56.1259 35.6499 55.8809 35.5611 55.5327 35.554C55.135 35.5398 54.7941 35.6179 54.51 35.7884C54.2327 35.9588 54.0023 36.1861 53.8173 36.4702C53.6327 36.7472 53.4873 37.0561 53.3809 37.397C53.2741 37.7308 53.1923 38.0611 53.1355 38.3878Z" fill="#464646"/>
</svg>
