<svg width="82" height="60" viewBox="0 0 82 60" fill="none" xmlns="http://www.w3.org/2000/svg">
<path fill-rule="evenodd" clip-rule="evenodd" d="M68.3563 0L71.7689 6.65758L71.1291 8.13982C66.9808 11.2094 65.2815 14.7423 64.0568 18.1692L60.8642 17.6627L57.4517 11.0051L61.1973 2.17373L68.3563 0ZM65.1696 18.4634L65.0297 19.1174L68.116 24.081L80.4359 17.483L82 10.1669L75.0789 7.32606L71.8698 9.01872C67.9687 11.884 66.3564 15.1632 65.1696 18.4634Z" fill="white"/>
<path d="M8.45698 14.1907H25.371L33.828 28.8386L25.371 43.4866H8.45698L0 28.8386L8.45698 14.1907Z" fill="white"/>
<path d="M37.1906 30.7039H54.1044L62.5615 45.3518L54.1044 59.9999H37.1906L28.7336 45.3518L37.1906 30.7039Z" fill="white"/>
<path d="M25.9125 23.7495L25.2809 27.3778H15.5115L16.1431 23.7495H25.9125ZM19.0457 15.9823L15.6458 35.548H11.05L14.4364 15.9823H19.0457ZM30.3337 15.9823L26.9338 35.548H22.3514L25.7378 15.9823H30.3337ZM36.7839 21.008L34.2709 35.548H29.8364L32.3629 21.008H36.7839ZM32.7525 17.3396C32.7346 16.6407 32.9676 16.0852 33.4513 15.6731C33.944 15.261 34.5218 15.0505 35.1848 15.0416C35.8208 15.0326 36.3853 15.2208 36.878 15.606C37.3707 15.9823 37.6216 16.5064 37.6305 17.1782C37.6484 17.877 37.411 18.4324 36.9183 18.8446C36.4346 19.2566 35.8612 19.4671 35.1982 19.4762C34.5621 19.4852 33.9977 19.3015 33.505 18.9252C33.0213 18.54 32.7704 18.0115 32.7525 17.3396ZM42.6564 32.2692L47.1581 21.008H51.9284L45.0348 35.548H42.2262L42.6564 32.2692ZM42.7638 21.008L43.7313 32.6588L43.2476 35.548H40.5466L38.2084 21.008H42.7638ZM57.7337 35.8168C56.7303 35.7989 55.8164 35.6152 54.9925 35.2658C54.168 34.9075 53.4696 34.4148 52.8963 33.7876C52.323 33.1606 51.8969 32.426 51.6194 31.5839C51.3505 30.7328 51.2525 29.8056 51.3236 28.8021L51.3775 28.278C51.4853 27.221 51.7358 26.2355 52.1303 25.3217C52.5242 24.399 53.0528 23.5926 53.7156 22.9029C54.3791 22.2041 55.1582 21.6621 56.0538 21.2768C56.9591 20.8916 57.9711 20.7125 59.0908 20.7394C60.1033 20.7573 60.9766 20.9588 61.7116 21.3441C62.4553 21.7293 63.0597 22.2534 63.5257 22.9164C63.9913 23.5703 64.3141 24.3228 64.493 25.1739C64.681 26.016 64.7263 26.9118 64.6278 27.8615L64.372 29.7025H52.8154L53.2724 26.867L60.3946 26.8805L60.4749 26.4908C60.538 26.0698 60.5202 25.689 60.4216 25.3486C60.323 25.0081 60.1395 24.7393 59.8706 24.5423C59.6017 24.3362 59.2388 24.2243 58.7818 24.2064C58.2268 24.1973 57.7652 24.3184 57.3977 24.5692C57.0393 24.8201 56.7481 25.1516 56.5245 25.5635C56.3095 25.9757 56.1437 26.4235 56.0274 26.9074C55.9104 27.3822 55.8256 27.8391 55.7716 28.278L55.7184 28.7888C55.6822 29.2277 55.6959 29.6533 55.7585 30.0653C55.8209 30.4774 55.9466 30.8492 56.1347 31.1807C56.3318 31.5121 56.5962 31.7809 56.9276 31.987C57.2589 32.184 57.6758 32.2916 58.1775 32.3095C58.8494 32.3274 59.4762 32.2021 60.0587 31.9333C60.6406 31.6645 61.1653 31.2971 61.6308 30.8313L63.4719 33.277C63.0687 33.8863 62.5493 34.379 61.9129 34.7552C61.2771 35.1225 60.5919 35.3913 59.8569 35.5615C59.1316 35.7406 58.4234 35.8258 57.7337 35.8168Z" fill="#464646"/>
<path d="M27.1579 50.0477L29.4422 36.623H34.0381L31.7536 50.0477C31.5834 51.3198 31.1578 52.4442 30.4769 53.4206C29.7962 54.3881 28.9272 55.1452 27.87 55.6916C26.8129 56.2291 25.6393 56.489 24.3493 56.4711C23.0592 56.4442 21.9707 56.1799 21.0838 55.6783C20.2059 55.1765 19.5429 54.4687 19.095 53.555C18.656 52.6323 18.4544 51.5348 18.4903 50.2626L23.1264 50.2761C23.0995 50.6972 23.1084 51.1047 23.1532 51.4989C23.198 51.8842 23.3325 52.2023 23.5564 52.453C23.7804 52.7039 24.1521 52.8338 24.6718 52.8428C25.1914 52.8607 25.6214 52.7308 25.9618 52.453C26.3023 52.1665 26.5665 51.8081 26.7546 51.3781C26.9518 50.9481 27.0862 50.5046 27.1579 50.0477ZM41.2812 52.5338L42.2218 46.4866C42.2576 46.164 42.2532 45.855 42.2085 45.5593C42.1726 45.2638 42.0606 45.0218 41.8724 44.8336C41.6933 44.6366 41.4111 44.5336 41.0259 44.5246C40.6765 44.5157 40.3808 44.5783 40.139 44.7128C39.8971 44.8471 39.7045 45.0353 39.5612 45.2772C39.4178 45.5191 39.3147 45.7967 39.252 46.1103L34.8175 46.1373C34.8533 45.2951 35.0773 44.5694 35.4894 43.9603C35.9015 43.351 36.4301 42.8539 37.0751 42.4686C37.7201 42.0833 38.4234 41.8012 39.1848 41.622C39.9554 41.4428 40.7123 41.3622 41.4559 41.3801C42.4771 41.398 43.4 41.6131 44.2242 42.0252C45.0573 42.4283 45.6978 43.0151 46.1457 43.7856C46.6026 44.5471 46.7773 45.4743 46.6698 46.5673L45.7157 52.5338C45.6351 53.0712 45.5635 53.6445 45.5007 54.2538C45.4381 54.8541 45.5277 55.4139 45.7695 55.9336L45.7561 56.1889L41.4424 56.2022C41.2454 55.62 41.1469 55.0153 41.1469 54.3881C41.1469 53.7611 41.1915 53.1429 41.2812 52.5338ZM42.7191 47.3063L42.3159 49.7252L40.5824 49.7117C40.242 49.7208 39.915 49.7789 39.6014 49.8864C39.2968 49.985 39.0236 50.1283 38.7818 50.3164C38.5398 50.5046 38.3383 50.7376 38.1769 51.0152C38.0247 51.2929 37.9262 51.6109 37.8814 51.9693C37.8456 52.2112 37.8635 52.4307 37.9351 52.6277C38.0157 52.8159 38.1367 52.9682 38.298 53.0846C38.4682 53.2012 38.6787 53.2639 38.9295 53.2728C39.3147 53.2818 39.6866 53.2101 40.0449 53.0579C40.4033 52.9055 40.7123 52.6904 40.972 52.4128C41.2408 52.135 41.4245 51.8125 41.5231 51.4452L42.3024 53.3399C42.0696 53.8059 41.8008 54.2313 41.4963 54.6166C41.2005 55.0018 40.8646 55.3378 40.4884 55.6244C40.121 55.9022 39.7089 56.1172 39.252 56.2695C38.7951 56.4217 38.289 56.4934 37.7336 56.4844C36.9362 56.4666 36.2016 56.2739 35.5297 55.9067C34.8579 55.5394 34.3248 55.0376 33.9306 54.4016C33.5364 53.7655 33.3528 53.0309 33.3796 52.1977C33.4155 51.2303 33.6529 50.4284 34.0918 49.7924C34.5308 49.1563 35.0997 48.659 35.7985 48.3007C36.5062 47.9335 37.2722 47.6737 38.0963 47.5213C38.9295 47.369 39.7537 47.2928 40.569 47.2928L42.7191 47.3063ZM53.886 44.9681L51.9376 56.1889H47.5165L50.0428 41.6489H54.168L53.886 44.9681ZM52.7839 48.4217L51.8299 48.462C51.9199 47.5929 52.1034 46.7329 52.3809 45.8819C52.6676 45.0308 53.062 44.2603 53.5637 43.5705C54.0653 42.8808 54.6881 42.3342 55.4317 41.9311C56.1748 41.5279 57.044 41.3399 58.0382 41.3667C58.7732 41.3846 59.3821 41.5414 59.8661 41.8371C60.3499 42.1237 60.7261 42.5089 60.995 42.9927C61.2725 43.4676 61.4519 44.0095 61.5322 44.6187C61.6217 45.219 61.6354 45.8415 61.573 46.4866L59.9601 56.1889H55.5389L57.0572 47.051C57.1025 46.6746 57.1111 46.3208 57.0841 45.9893C57.0572 45.658 56.95 45.3892 56.7619 45.1831C56.5739 44.9681 56.2556 44.8561 55.8078 44.8471C55.324 44.8292 54.9071 44.9323 54.5579 45.1562C54.2088 45.3713 53.9128 45.658 53.6709 46.0162C53.4382 46.3746 53.2454 46.7643 53.0929 47.1854C52.9496 47.6064 52.847 48.0185 52.7839 48.4217ZM60.8333 48.4217L59.6643 48.462C59.7542 47.5929 59.9332 46.7375 60.202 45.8954C60.4795 45.0443 60.8603 44.2738 61.3442 43.584C61.8367 42.8941 62.4508 42.3477 63.1852 41.9444C63.9197 41.5414 64.7889 41.3488 65.7923 41.3667C66.5985 41.3936 67.2612 41.5683 67.7813 41.8908C68.3007 42.2132 68.6946 42.6433 68.9636 43.1809C69.2411 43.7183 69.4204 44.3186 69.5013 44.9815C69.5816 45.6445 69.5862 46.3298 69.5145 47.0375L67.9825 56.1889H63.5482L65.0801 47.024C65.1249 46.6569 65.1335 46.3119 65.1071 45.9893C65.0801 45.658 64.9724 45.3892 64.7843 45.1831C64.6055 44.9681 64.2964 44.8561 63.8572 44.8471C63.3554 44.8292 62.9254 44.9277 62.5671 45.1428C62.2174 45.3578 61.9267 45.6445 61.6933 46.0028C61.4606 46.3522 61.2771 46.7419 61.143 47.1719C61.0081 47.5929 60.905 48.0096 60.8333 48.4217Z" fill="#464646"/>
</svg>
