<svg width="51" height="50" viewBox="0 0 51 50" fill="none" xmlns="http://www.w3.org/2000/svg">
<path d="M44.6127 14.1917C45.7142 13.0905 46.3331 11.5968 46.3333 10.0393C46.3335 8.48177 45.7149 6.98796 44.6137 5.88648C43.5125 4.785 42.0189 4.16609 40.4613 4.16589C38.9038 4.1657 37.41 4.78424 36.3085 5.88544L8.50436 33.6959C8.02065 34.1781 7.66293 34.772 7.46269 35.425L4.71061 44.4917C4.65676 44.6719 4.6527 44.8632 4.69884 45.0455C4.74498 45.2278 4.83961 45.3942 4.97268 45.5271C5.10576 45.66 5.27231 45.7543 5.45469 45.8002C5.63706 45.846 5.82844 45.8417 6.00852 45.7875L15.0773 43.0375C15.7297 42.8391 16.3235 42.4835 16.8064 42.0021L44.6127 14.1917Z" stroke="#1E1E1E" stroke-width="4.16667" stroke-linecap="round" stroke-linejoin="round"/>
</svg>
