<svg width="28" height="34" viewBox="0 0 28 34" fill="none" xmlns="http://www.w3.org/2000/svg">
<path d="M13.8 13.8C17.3346 13.8 20.2 10.9346 20.2 7.4C20.2 3.86538 17.3346 1 13.8 1C10.2654 1 7.40002 3.86538 7.40002 7.4C7.40002 10.9346 10.2654 13.8 13.8 13.8Z" stroke="#1E1E1E" stroke-width="2"/>
<path d="M26.596 26.6C26.6 26.3373 26.6 26.0704 26.6 25.8C26.6 21.8235 20.8693 18.6 13.8 18.6C6.73075 18.6 1 21.8235 1 25.8C1 29.7765 1 33 13.8 33C17.3696 33 19.9437 32.7493 21.8 32.3014" stroke="#1E1E1E" stroke-width="2" stroke-linecap="round"/>
</svg>
