<svg width="18" height="23" viewBox="0 0 18 23" fill="none" xmlns="http://www.w3.org/2000/svg">
<path d="M9 9.5C11.2091 9.5 13 7.70914 13 5.5C13 3.29086 11.2091 1.5 9 1.5C6.79086 1.5 5 3.29086 5 5.5C5 7.70914 6.79086 9.5 9 9.5Z" stroke="#F29F05" stroke-width="2"/>
<path d="M16.9975 17.5C17 17.3358 17 17.169 17 17C17 14.5147 13.4183 12.5 9 12.5C4.58172 12.5 1 14.5147 1 17C1 19.4853 1 21.5 9 21.5C11.231 21.5 12.8398 21.3433 14 21.0634" stroke="#F29F05" stroke-width="2" stroke-linecap="round"/>
</svg>
