<svg width="24" height="25" viewBox="0 0 24 25" fill="none" xmlns="http://www.w3.org/2000/svg">
<path d="M11 9.27271H13V7.27271H11M12 20.2727C7.59 20.2727 4 16.6827 4 12.2727C4 7.86271 7.59 4.27271 12 4.27271C16.41 4.27271 20 7.86271 20 12.2727C20 16.6827 16.41 20.2727 12 20.2727ZM12 2.27271C10.6868 2.27271 9.38642 2.53136 8.17317 3.03391C6.95991 3.53646 5.85752 4.27305 4.92893 5.20164C3.05357 7.077 2 9.62054 2 12.2727C2 14.9249 3.05357 17.4684 4.92893 19.3438C5.85752 20.2724 6.95991 21.009 8.17317 21.5115C9.38642 22.014 10.6868 22.2727 12 22.2727C14.6522 22.2727 17.1957 21.2191 19.0711 19.3438C20.9464 17.4684 22 14.9249 22 12.2727C22 10.9595 21.7413 9.65913 21.2388 8.44587C20.7362 7.23261 19.9997 6.13022 19.0711 5.20164C18.1425 4.27305 17.0401 3.53646 15.8268 3.03391C14.6136 2.53136 13.3132 2.27271 12 2.27271ZM11 17.2727H13V11.2727H11V17.2727Z" fill="#1E1E1E"/>
</svg>
