<svg width="24" height="25" viewBox="0 0 24 25" fill="none" xmlns="http://www.w3.org/2000/svg">
<path fill-rule="evenodd" clip-rule="evenodd" d="M18 4.27271C18 4.00749 17.8946 3.75313 17.7071 3.5656C17.5196 3.37806 17.2652 3.27271 17 3.27271C16.7348 3.27271 16.4804 3.37806 16.2929 3.5656C16.1054 3.75313 16 4.00749 16 4.27271V5.27271H4C3.73478 5.27271 3.48043 5.37806 3.29289 5.5656C3.10536 5.75313 3 6.00749 3 6.27271C3 6.53792 3.10536 6.79228 3.29289 6.97981C3.48043 7.16735 3.73478 7.27271 4 7.27271H16V8.27271C16 8.53792 16.1054 8.79228 16.2929 8.97981C16.4804 9.16735 16.7348 9.27271 17 9.27271C17.2652 9.27271 17.5196 9.16735 17.7071 8.97981C17.8946 8.79228 18 8.53792 18 8.27271V7.27271H20C20.2652 7.27271 20.5196 7.16735 20.7071 6.97981C20.8946 6.79228 21 6.53792 21 6.27271C21 6.00749 20.8946 5.75313 20.7071 5.5656C20.5196 5.37806 20.2652 5.27271 20 5.27271H18V4.27271ZM4 11.2727C3.73478 11.2727 3.48043 11.3781 3.29289 11.5656C3.10536 11.7531 3 12.0075 3 12.2727C3 12.5379 3.10536 12.7923 3.29289 12.9798C3.48043 13.1673 3.73478 13.2727 4 13.2727H6V14.2727C6 14.5379 6.10536 14.7923 6.29289 14.9798C6.48043 15.1673 6.73478 15.2727 7 15.2727C7.26522 15.2727 7.51957 15.1673 7.70711 14.9798C7.89464 14.7923 8 14.5379 8 14.2727V13.2727H20C20.2652 13.2727 20.5196 13.1673 20.7071 12.9798C20.8946 12.7923 21 12.5379 21 12.2727C21 12.0075 20.8946 11.7531 20.7071 11.5656C20.5196 11.3781 20.2652 11.2727 20 11.2727H8V10.2727C8 10.0075 7.89464 9.75313 7.70711 9.5656C7.51957 9.37806 7.26522 9.27271 7 9.27271C6.73478 9.27271 6.48043 9.37806 6.29289 9.5656C6.10536 9.75313 6 10.0075 6 10.2727V11.2727H4ZM3 18.2727C3 18.0075 3.10536 17.7531 3.29289 17.5656C3.48043 17.3781 3.73478 17.2727 4 17.2727H16V16.2727C16 16.0075 16.1054 15.7531 16.2929 15.5656C16.4804 15.3781 16.7348 15.2727 17 15.2727C17.2652 15.2727 17.5196 15.3781 17.7071 15.5656C17.8946 15.7531 18 16.0075 18 16.2727V17.2727H20C20.2652 17.2727 20.5196 17.3781 20.7071 17.5656C20.8946 17.7531 21 18.0075 21 18.2727C21 18.5379 20.8946 18.7923 20.7071 18.9798C20.5196 19.1673 20.2652 19.2727 20 19.2727H18V20.2727C18 20.5379 17.8946 20.7923 17.7071 20.9798C17.5196 21.1673 17.2652 21.2727 17 21.2727C16.7348 21.2727 16.4804 21.1673 16.2929 20.9798C16.1054 20.7923 16 20.5379 16 20.2727V19.2727H4C3.73478 19.2727 3.48043 19.1673 3.29289 18.9798C3.10536 18.7923 3 18.5379 3 18.2727Z" fill="#1E1E1E"/>
</svg>
