<svg width="24" height="25" viewBox="0 0 24 25" fill="none" xmlns="http://www.w3.org/2000/svg">
<path d="M21.41 11.8527L12.41 2.85271C12.05 2.4927 11.55 2.27271 11 2.27271H4C2.9 2.27271 2 3.17271 2 4.27271V11.2727C2 11.8227 2.22 12.3227 2.59 12.6927L11.59 21.6927C11.95 22.0527 12.45 22.2727 13 22.2727C13.55 22.2727 14.05 22.0527 14.41 21.6827L21.41 14.6827C21.78 14.3227 22 13.8227 22 13.2727C22 12.7227 21.77 12.2127 21.41 11.8527ZM5.5 7.27271C4.67 7.27271 4 6.60271 4 5.77271C4 4.94271 4.67 4.27271 5.5 4.27271C6.33 4.27271 7 4.94271 7 5.77271C7 6.60271 6.33 7.27271 5.5 7.27271Z" fill="#1E1E1E"/>
</svg>
