<svg width="75" height="75" viewBox="0 0 75 75" fill="none" xmlns="http://www.w3.org/2000/svg">
<path d="M50 34.375C55.1875 34.375 59.3438 30.1875 59.3438 25C59.3438 19.8125 55.1875 15.625 50 15.625C44.8125 15.625 40.625 19.8125 40.625 25C40.625 30.1875 44.8125 34.375 50 34.375ZM25 34.375C30.1875 34.375 34.3438 30.1875 34.3438 25C34.3438 19.8125 30.1875 15.625 25 15.625C19.8125 15.625 15.625 19.8125 15.625 25C15.625 30.1875 19.8125 34.375 25 34.375ZM25 40.625C17.7188 40.625 3.125 44.2812 3.125 51.5625V59.375H46.875V51.5625C46.875 44.2812 32.2812 40.625 25 40.625ZM50 40.625C49.0938 40.625 48.0625 40.6875 46.9688 40.7812C50.5938 43.4062 53.125 46.9375 53.125 51.5625V59.375H71.875V51.5625C71.875 44.2812 57.2812 40.625 50 40.625Z" fill="#1E1E1E"/>
</svg>
