<svg width="24" height="25" viewBox="0 0 24 25" fill="none" xmlns="http://www.w3.org/2000/svg">
<path d="M21 2.27271H6C5.46957 2.27271 4.96086 2.48342 4.58579 2.85849C4.21071 3.23356 4 3.74227 4 4.27271V7.27271H2V9.27271H4V11.2727H2V13.2727H4V15.2727H2V17.2727H4V20.2727C4 20.8031 4.21071 21.3118 4.58579 21.6869C4.96086 22.062 5.46957 22.2727 6 22.2727H21C21.2652 22.2727 21.5196 22.1673 21.7071 21.9798C21.8946 21.7923 22 21.5379 22 21.2727V3.27271C22 3.00749 21.8946 2.75313 21.7071 2.5656C21.5196 2.37806 21.2652 2.27271 21 2.27271ZM13 5.27171C14.648 5.27171 16 6.6227 16 8.27171C15.9976 9.06672 15.6808 9.8285 15.1188 10.3908C14.5567 10.953 13.795 11.2701 13 11.2727C11.353 11.2727 10 9.91971 10 8.27171C10 6.6227 11.353 5.27171 13 5.27171ZM19 18.2727H7V17.5227C7 15.3037 9.705 13.0227 13 13.0227C16.295 13.0227 19 15.3037 19 17.5227V18.2727Z" fill="#1E1E1E"/>
</svg>
