<svg width="24" height="25" viewBox="0 0 24 25" fill="none" xmlns="http://www.w3.org/2000/svg">
<g clip-path="url(#clip0_14_325)">
<path d="M13.5 16.7727H9C9 12.2727 11.4 10.7727 13.05 9.87271C13.65 9.57271 14.1 9.27271 14.4 8.97271C15.15 8.22271 14.85 7.17271 14.7 6.87271C14.25 5.82271 13.2 4.77271 11.25 4.77271C8.1 4.77271 7.5 7.62271 7.5 8.22271L3 7.62271C3.3 5.07271 5.55 0.272705 11.25 0.272705C14.7 0.272705 17.7 2.22271 18.9 5.07271C19.95 7.62271 19.5 10.3227 17.7 12.1227C16.95 12.8727 16.05 13.3227 15.3 13.7727C13.95 14.5227 13.5 15.2727 13.5 16.7727ZM14.25 21.2727C14.259 21.6722 14.1882 22.0695 14.0415 22.4412C13.8949 22.813 13.6755 23.1517 13.3962 23.4375C13.1169 23.7232 12.7833 23.9503 12.415 24.1054C12.0467 24.2605 11.6511 24.3404 11.2515 24.3405C10.8519 24.3406 10.4563 24.2609 10.0879 24.106C9.71956 23.9511 9.38585 23.7242 9.10639 23.4385C8.82693 23.1529 8.60735 22.8143 8.46054 22.4426C8.31374 22.071 8.24267 21.6737 8.2515 21.2742C8.26883 20.4904 8.59234 19.7445 9.15276 19.1961C9.71318 18.6478 10.466 18.3407 11.25 18.3405C12.034 18.3403 12.787 18.6471 13.3477 19.1951C13.9084 19.7431 14.2323 20.4889 14.25 21.2727Z" fill="#1E1E1E"/>
</g>
<defs>
<clipPath id="clip0_14_325">
<rect width="24" height="24" fill="white" transform="translate(0 0.272705)"/>
</clipPath>
</defs>
</svg>
