<svg width="75" height="75" viewBox="0 0 75 75" fill="none" xmlns="http://www.w3.org/2000/svg">
<path d="M9.375 53.9063V65.625H21.0938L55.6562 31.0625L43.9375 19.3438L9.375 53.9063ZM64.7187 22C65.0084 21.7109 65.2383 21.3675 65.3951 20.9895C65.5519 20.6114 65.6326 20.2062 65.6326 19.7969C65.6326 19.3876 65.5519 18.9823 65.3951 18.6043C65.2383 18.2263 65.0084 17.8829 64.7187 17.5938L57.4063 10.2813C57.1171 9.99156 56.7737 9.76172 56.3957 9.60491C56.0177 9.44809 55.6124 9.36737 55.2031 9.36737C54.7938 9.36737 54.3886 9.44809 54.0105 9.60491C53.6325 9.76172 53.2891 9.99156 53 10.2813L47.2812 16L59 27.7188L64.7187 22Z" fill="#1E1E1E"/>
</svg>
